<!DOCTYPE svg PUBLIC "-//W3C//DTD SVG 20010904//EN" "http://www.w3.org/TR/2001/REC-SVG-20010904/DTD/svg10.dtd">
<svg version="1.0" xmlns="http://www.w3.org/2000/svg" width="1200px" height="1199px" viewBox="0 0 12000 11990" preserveAspectRatio="xMidYMid meet">
<g id="layer101" fill="#000000" stroke="none">
</g>
<g id="layer102" fill="#edecec" stroke="none">
<path d="M3033 11183 c-40 -2 -73 -8 -73 -13 0 -6 -8 -10 -18 -10 -9 0 -60 -11 -112 -25 -135 -35 -144 -38 -150 -44 -6 -8 -143 -71 -153 -71 -4 0 -33 -20 -66 -45 -32 -25 -62 -45 -65 -45 -3 0 -22 -18 -42 -40 -20 -22 -41 -40 -48 -40 -6 0 -24 -16 -39 -35 -15 -19 -34 -35 -41 -35 -7 0 -23 -10 -36 -22 -12 -13 -44 -34 -69 -48 -27 -15 -47 -34 -49 -45 -4 -27 40 -136 67 -166 11 -13 40 -46 64 -72 54 -62 84 -77 151 -77 56 0 146 28 172 55 14 13 86 37 154 49 49 9 184 -21 212 -48 12 -11 40 -36 62 -54 127 -107 170 -251 109 -371 -14 -30 -53 -83 -87 -119 -61 -65 -198 -175 -246 -196 -14 -6 -27 -13 -30 -17 -9 -12 -184 -96 -255 -122 -269 -100 -488 -119 -606 -52 -46 26 -100 96 -126 164 -24 61 -24 246 0 309 27 71 93 139 160 164 31 11 57 24 57 28 0 4 16 15 35 26 22 12 43 35 57 64 21 42 23 58 23 222 -1 119 -5 182 -12 189 -9 9 -20 9 -45 0 -18 -7 -91 -18 -161 -27 -100 -11 -132 -19 -147 -34 -11 -11 -32 -23 -47 -26 -44 -11 -133 -53 -133 -62 0 -5 -18 -17 -41 -27 -22 -10 -49 -29 -59 -42 -10 -13 -21 -23 -25 -23 -4 0 -22 -13 -40 -29 -18 -16 -37 -30 -42 -32 -4 -2 -26 -26 -48 -54 -22 -27 -46 -56 -52 -63 -7 -7 -24 -52 -38 -100 -15 -48 -30 -98 -35 -112 -4 -14 -13 -47 -20 -75 -6 -27 -15 -66 -20 -85 -5 -19 -19 -96 -30 -170 -40 -255 -25 -629 36 -864 23 -91 75 -250 85 -260 5 -6 9 -16 9 -24 0 -7 10 -34 21 -60 12 -26 35 -76 51 -112 16 -35 32 -67 36 -70 4 -3 23 -36 42 -75 19 -38 41 -74 48 -78 6 -4 12 -12 12 -18 0 -12 45 -82 87 -135 18 -23 33 -46 33 -53 0 -6 8 -19 17 -29 10 -10 36 -45 57 -77 22 -33 47 -66 57 -72 9 -7 28 -30 40 -50 13 -21 31 -44 41 -51 10 -7 27 -31 38 -52 11 -22 29 -44 40 -50 11 -6 20 -17 20 -24 0 -8 17 -31 38 -52 20 -22 52 -62 71 -89 18 -28 40 -54 47 -58 8 -5 26 -27 41 -50 14 -23 32 -46 40 -50 7 -4 22 -25 32 -45 11 -20 33 -52 50 -70 17 -18 31 -37 31 -41 0 -4 16 -25 36 -46 20 -22 44 -56 54 -75 10 -19 29 -46 43 -60 13 -14 27 -35 31 -47 4 -12 19 -35 34 -51 16 -17 37 -49 47 -73 11 -24 31 -62 45 -83 38 -59 37 -57 65 -116 14 -30 32 -66 40 -80 7 -14 21 -45 30 -70 9 -25 23 -58 31 -73 8 -16 14 -35 14 -43 0 -8 5 -14 10 -14 6 0 10 -6 10 -13 0 -22 59 -200 70 -211 6 -6 10 -20 10 -32 0 -12 11 -69 24 -126 47 -199 87 -496 101 -753 3 -60 8 -267 10 -460 3 -282 7 -376 23 -485 47 -321 144 -658 267 -925 17 -38 38 -86 45 -105 7 -19 17 -39 21 -45 19 -27 79 -148 79 -161 0 -8 4 -14 9 -14 9 0 71 -106 71 -121 0 -5 11 -20 25 -35 14 -15 35 -47 47 -71 12 -23 25 -43 29 -43 4 0 14 -12 22 -28 32 -63 54 -96 82 -127 61 -68 100 -116 112 -138 6 -12 25 -32 42 -45 17 -12 31 -28 31 -34 0 -22 364 -368 388 -368 4 0 19 -11 32 -25 56 -59 350 -184 544 -230 371 -89 867 -70 1241 47 133 41 198 69 470 204 127 63 239 114 248 114 10 0 27 9 39 20 22 20 117 60 143 60 8 0 15 4 15 8 0 12 132 66 188 77 17 4 32 11 32 15 0 10 185 70 214 70 9 0 16 4 16 9 0 10 116 45 225 67 44 9 82 19 85 24 6 9 124 36 215 49 40 6 76 17 89 28 25 22 90 53 112 53 8 0 25 11 38 23 13 13 51 38 85 56 34 17 71 41 82 52 12 12 36 27 54 35 19 7 36 22 39 32 3 9 22 26 42 37 20 10 44 29 53 41 10 13 39 39 64 58 49 37 116 106 117 119 0 4 18 27 41 50 63 66 83 89 113 135 16 23 32 42 37 42 4 0 11 10 15 23 4 12 23 47 42 77 47 72 133 248 163 333 13 37 27 67 31 67 5 0 8 12 8 26 0 15 9 57 20 93 53 181 80 375 80 578 0 245 -47 749 -86 936 -8 38 -14 82 -14 98 0 16 -4 37 -9 47 -6 9 -24 67 -41 127 -17 61 -49 147 -71 193 -21 46 -39 89 -39 96 0 7 -8 24 -19 37 -10 13 -28 44 -41 69 -33 66 -121 200 -131 200 -5 0 -9 5 -9 11 0 13 -49 78 -100 131 -19 21 -42 46 -51 55 -9 10 -27 28 -40 41 -13 12 -37 36 -54 52 -16 17 -35 30 -42 30 -6 0 -14 9 -18 19 -3 11 -18 27 -33 36 -15 10 -38 28 -52 41 -43 40 -97 84 -104 84 -7 0 -43 32 -116 105 -19 19 -43 35 -52 35 -9 0 -28 14 -43 31 -14 18 -40 39 -58 48 -59 31 -82 46 -90 58 -4 7 -27 22 -50 32 -23 11 -52 28 -63 39 -12 11 -46 30 -75 43 -30 12 -61 30 -70 40 -9 10 -39 26 -65 35 -70 23 -134 55 -134 65 0 5 -8 9 -17 9 -22 0 -153 61 -153 71 0 5 -7 9 -16 9 -15 0 -133 65 -144 79 -3 3 -22 15 -43 26 -22 10 -49 29 -60 42 -12 12 -26 23 -32 23 -14 0 -145 92 -145 102 0 4 -6 8 -13 8 -7 0 -27 13 -44 29 -18 16 -36 31 -42 33 -12 4 -86 65 -129 106 -19 17 -37 32 -41 32 -5 0 -26 19 -49 43 -67 68 -131 127 -140 127 -5 0 -18 18 -31 40 -12 22 -28 40 -36 40 -7 0 -23 16 -35 36 -13 19 -33 40 -46 44 -13 5 -24 15 -24 22 0 16 -47 68 -60 68 -6 0 -10 4 -10 10 0 11 -51 79 -98 130 -18 19 -32 39 -32 45 -1 13 -36 55 -47 55 -4 0 -16 18 -26 40 -10 21 -26 42 -36 45 -9 3 -24 21 -31 40 -8 19 -17 35 -22 35 -4 0 -14 13 -23 29 -8 17 -26 42 -40 57 -14 15 -25 32 -25 39 0 6 -13 24 -30 38 -16 15 -30 36 -30 46 0 10 -7 25 -17 32 -9 8 -22 29 -30 47 -7 17 -17 32 -21 32 -5 0 -18 19 -30 43 -11 23 -30 52 -41 64 -12 12 -21 29 -21 37 0 8 -4 17 -9 20 -8 5 -44 63 -91 148 -8 15 -31 55 -51 90 -45 78 -89 157 -147 268 -44 84 -122 233 -169 320 -13 24 -29 51 -36 60 -7 8 -26 40 -42 70 -16 30 -40 66 -53 80 -13 14 -31 42 -40 63 -9 20 -22 37 -28 37 -6 0 -15 10 -21 23 -12 26 -58 80 -182 216 -17 19 -31 37 -31 41 0 4 -16 18 -35 31 -19 13 -40 34 -46 46 -7 13 -18 23 -25 23 -6 0 -27 17 -46 38 -19 20 -42 42 -50 47 -8 6 -28 19 -44 29 -16 11 -40 31 -54 46 -14 15 -41 35 -62 44 -20 10 -38 26 -41 36 -3 11 -18 22 -33 26 -16 4 -42 18 -57 31 -16 12 -35 23 -43 23 -8 0 -14 4 -14 9 0 5 -25 22 -56 37 -31 15 -61 32 -67 38 -7 7 -34 20 -62 30 -27 11 -77 32 -110 47 -60 28 -198 71 -271 85 -22 4 -41 10 -44 15 -6 9 -323 18 -427 12z m332 -198 c109 -17 206 -43 340 -91 55 -19 118 -41 140 -47 22 -6 46 -17 53 -24 7 -7 22 -13 32 -13 10 0 21 -4 25 -9 3 -5 27 -17 53 -27 26 -10 49 -21 52 -25 3 -3 41 -23 85 -44 44 -21 84 -44 88 -51 4 -8 13 -14 18 -14 11 0 22 -8 121 -85 31 -25 60 -45 64 -45 4 0 22 -18 41 -40 19 -22 41 -40 49 -40 8 0 19 -11 24 -24 5 -13 25 -36 44 -51 20 -15 36 -31 36 -36 0 -5 26 -43 58 -86 32 -43 63 -89 70 -103 6 -14 16 -32 21 -40 37 -58 94 -232 131 -395 12 -55 34 -145 50 -200 15 -55 33 -125 40 -155 7 -30 21 -73 31 -95 9 -22 27 -74 39 -115 13 -41 33 -97 45 -125 13 -27 32 -78 43 -112 11 -33 27 -72 36 -86 9 -13 27 -52 41 -87 14 -35 28 -66 33 -69 6 -5 25 -42 75 -148 6 -13 14 -23 18 -23 4 0 21 -27 38 -59 17 -33 46 -77 66 -98 19 -21 35 -43 35 -50 0 -6 16 -20 35 -32 19 -11 35 -27 35 -36 0 -9 16 -25 35 -37 20 -11 42 -33 51 -49 8 -16 27 -35 43 -44 16 -8 33 -24 36 -35 4 -12 24 -32 45 -45 22 -14 44 -33 49 -43 5 -10 40 -33 78 -51 89 -43 129 -65 148 -81 24 -20 45 -77 45 -121 0 -50 -42 -144 -81 -181 -42 -40 -76 -53 -199 -74 -100 -16 -114 -16 -280 0 -197 19 -355 48 -416 77 -22 10 -48 19 -57 19 -10 0 -25 4 -35 9 -9 5 -42 19 -72 31 -30 13 -57 26 -60 29 -3 4 -27 17 -53 30 -27 12 -58 31 -70 42 -11 10 -25 19 -30 19 -24 0 -246 212 -291 278 -16 23 -32 42 -36 42 -5 0 -22 25 -39 55 -17 30 -35 55 -39 55 -5 0 -24 30 -42 67 -18 37 -38 72 -45 78 -8 5 -25 39 -39 75 -15 36 -32 70 -40 75 -7 6 -23 39 -35 74 -12 36 -35 91 -52 124 -16 32 -29 66 -29 74 0 8 -6 29 -14 46 -8 18 -20 49 -26 70 -6 20 -16 37 -21 37 -5 0 -9 11 -9 25 0 13 -4 34 -9 47 -15 37 -84 266 -150 495 -60 211 -76 254 -132 368 -59 119 -76 142 -204 270 -142 142 -236 226 -266 237 -10 4 -19 12 -19 17 0 5 -21 23 -47 40 -158 104 -233 194 -273 328 -13 43 -6 113 10 113 6 0 10 6 10 13 0 22 60 99 81 104 10 3 19 9 19 13 0 18 184 75 250 79 8 0 56 -6 105 -14z m-1744 -612 c86 -44 107 -127 70 -268 -19 -70 -28 -94 -57 -148 -17 -30 -53 -160 -74 -259 -10 -51 -8 -76 15 -210 26 -156 48 -241 69 -268 11 -14 27 -50 56 -128 7 -18 18 -36 25 -40 6 -4 25 -29 40 -57 16 -27 42 -63 57 -79 15 -17 28 -35 28 -40 0 -6 13 -24 30 -41 16 -16 81 -83 143 -147 63 -65 117 -118 120 -118 3 0 35 -28 70 -62 36 -35 101 -97 146 -138 44 -41 81 -80 81 -87 0 -7 16 -24 35 -39 19 -14 35 -32 35 -38 0 -7 16 -27 35 -46 19 -19 35 -38 35 -43 0 -5 9 -21 21 -35 35 -46 79 -117 79 -128 0 -6 8 -22 19 -35 23 -30 89 -178 108 -244 7 -27 18 -59 23 -70 23 -50 42 -159 47 -261 9 -171 -26 -294 -110 -394 -23 -27 -37 -34 -75 -37 -40 -4 -52 -1 -80 23 -18 15 -43 33 -55 39 -12 6 -28 23 -35 38 -7 15 -24 35 -38 44 -14 9 -31 30 -38 47 -7 17 -29 52 -50 79 -20 26 -45 67 -57 91 -11 25 -27 47 -35 50 -8 3 -14 11 -14 18 0 18 -62 138 -72 138 -4 0 -8 6 -8 13 0 20 -58 137 -68 137 -6 0 -17 15 -26 34 -9 19 -29 48 -46 66 -16 18 -30 35 -30 39 0 4 -18 28 -41 52 -22 24 -44 49 -47 56 -15 25 -134 156 -272 297 -204 209 -179 181 -259 293 -19 26 -37 50 -41 53 -3 3 -11 16 -18 30 -7 14 -26 48 -42 75 -40 70 -75 144 -89 190 -7 22 -21 56 -31 75 -21 41 -37 98 -51 185 -5 33 -14 68 -19 77 -24 43 -33 168 -26 378 4 118 11 235 15 260 5 25 14 81 21 125 15 104 35 176 57 201 10 11 29 42 43 69 14 28 42 68 63 90 20 22 37 43 37 47 0 4 32 23 71 42 89 45 139 47 210 9z m4240 -3757 c24 -8 45 -20 47 -26 2 -5 10 -10 18 -10 23 0 130 -56 160 -84 16 -14 33 -26 39 -26 13 0 125 -110 125 -122 0 -6 14 -29 31 -53 29 -41 31 -48 31 -133 0 -88 -1 -92 -46 -169 -77 -133 -194 -200 -332 -190 -148 11 -228 78 -298 251 -41 99 -11 205 62 226 50 13 158 13 185 -2 38 -20 87 -78 87 -104 0 -26 -32 -64 -53 -64 -7 0 -48 18 -92 40 -44 22 -81 40 -84 40 -2 0 -2 -26 1 -58 4 -53 8 -62 52 -107 l47 -50 79 0 c62 0 82 4 97 18 10 9 30 27 45 38 33 24 60 105 51 152 -10 54 -43 108 -75 125 -17 9 -39 25 -50 35 -46 44 -93 52 -303 52 -181 0 -203 -2 -232 -20 -32 -19 -33 -21 -33 -91 0 -40 4 -74 9 -76 5 -1 20 -41 32 -88 27 -101 33 -290 11 -312 -17 -17 -25 -4 -78 132 -87 222 -133 359 -145 430 -13 69 8 129 59 174 20 17 40 36 47 41 25 23 62 38 110 46 79 13 344 3 396 -15z m-2042 -752 c28 -8 54 -21 57 -29 3 -8 15 -17 26 -21 29 -9 218 -204 218 -225 0 -10 39 -69 52 -79 4 -3 20 -31 37 -63 17 -32 37 -64 45 -73 9 -8 19 -29 24 -47 6 -18 19 -56 31 -84 20 -50 20 -53 2 -53 -16 0 -161 130 -161 145 0 3 -11 21 -25 39 -14 18 -25 38 -25 44 0 7 -6 12 -13 12 -7 0 -19 16 -26 35 -17 47 -87 113 -127 121 -39 7 -112 -17 -168 -55 -116 -82 -187 -202 -188 -321 -1 -139 91 -260 197 -260 51 0 126 25 138 45 4 8 14 15 22 15 27 0 56 58 58 114 2 75 -25 129 -79 161 -56 33 -68 32 -60 -2 36 -163 33 -173 -53 -173 l-59 0 -21 43 c-12 24 -21 55 -21 68 0 49 31 118 68 150 33 29 39 31 90 26 64 -7 120 -43 200 -128 45 -48 56 -68 68 -121 17 -68 13 -138 -11 -194 -28 -69 -154 -156 -252 -174 -78 -15 -228 -9 -265 11 -36 19 -104 98 -111 129 -3 14 -11 45 -18 70 -34 125 -4 398 67 608 53 155 106 234 183 269 34 16 38 16 100 -3z m2610 -489 c14 -7 37 -39 55 -76 19 -40 38 -65 50 -67 24 -5 92 24 137 59 20 15 48 31 63 35 14 3 26 10 26 15 0 27 95 -19 105 -50 8 -25 -3 -47 -52 -111 -48 -63 -116 -123 -165 -144 -143 -63 -294 -79 -378 -40 -25 12 -56 26 -70 31 -18 8 -32 28 -49 72 -28 70 -25 126 11 197 42 84 178 124 267 79z m-1948 -872 c16 -10 29 -20 29 -23 0 -4 9 -16 20 -28 12 -12 27 -41 35 -63 58 -163 -82 -340 -330 -420 -93 -30 -244 -32 -275 -4 -38 34 -18 145 26 145 25 0 180 57 246 91 22 11 38 27 38 37 0 9 -27 40 -60 67 -41 34 -60 57 -60 73 0 25 83 109 128 129 42 19 168 16 203 -4z"/>
<path d="M2630 10183 c-19 -8 -43 -22 -52 -30 -26 -23 -132 -29 -162 -9 -62 40 -62 1 -1 -43 25 -18 45 -35 45 -39 0 -4 21 -15 46 -26 47 -19 145 -19 164 0 14 14 41 126 34 146 -6 21 -27 22 -74 1z"/>
<path d="M2156 10061 c-4 -27 -10 -51 -14 -53 -4 -2 -23 -25 -42 -53 -19 -27 -49 -64 -67 -81 -61 -58 -36 -107 59 -120 79 -11 128 13 128 62 0 13 5 24 10 24 6 0 10 11 10 25 0 14 -4 25 -9 25 -4 0 -11 26 -15 58 -7 63 -36 162 -47 162 -3 0 -9 -22 -13 -49z"/>
<path d="M6840 8800 c0 -5 -10 -10 -22 -10 -40 0 -128 -49 -178 -97 -123 -122 -180 -335 -135 -507 19 -71 58 -158 90 -201 14 -17 25 -35 25 -39 0 -21 246 -266 268 -266 5 0 102 -70 120 -87 7 -7 28 -20 46 -28 18 -9 43 -25 54 -35 12 -11 26 -20 31 -20 5 0 22 -10 38 -23 15 -12 39 -28 53 -35 29 -14 164 -98 200 -125 14 -10 50 -33 80 -52 61 -38 103 -67 157 -108 20 -15 52 -35 70 -44 18 -8 33 -19 33 -24 0 -5 17 -17 38 -28 20 -11 47 -29 59 -40 12 -12 26 -21 30 -21 4 0 19 -12 33 -27 13 -14 37 -30 52 -35 16 -6 28 -14 28 -19 0 -5 23 -23 50 -40 28 -17 50 -34 50 -38 0 -4 23 -22 51 -41 28 -18 53 -39 56 -46 3 -8 9 -14 14 -14 4 0 19 -10 32 -22 13 -13 46 -41 72 -63 154 -129 369 -343 453 -451 12 -16 33 -43 46 -59 44 -56 146 -246 146 -272 0 -7 5 -13 10 -13 6 0 10 -5 10 -11 0 -5 11 -34 24 -62 13 -29 27 -68 31 -87 4 -19 11 -37 15 -40 11 -7 68 -190 76 -242 4 -24 10 -45 14 -48 17 -11 63 -250 68 -347 2 -57 9 -103 13 -103 5 0 9 -72 9 -160 0 -100 -4 -160 -10 -160 -6 0 -10 -65 -10 -175 0 -96 4 -175 9 -175 5 0 12 -12 16 -27 11 -44 61 -113 97 -134 118 -69 129 -72 287 -67 107 3 154 8 176 20 17 8 76 30 133 47 56 18 102 36 102 40 0 4 19 18 41 31 49 27 82 54 163 135 89 89 139 147 152 177 7 14 21 31 31 37 11 5 30 31 43 56 13 25 32 51 42 56 10 5 18 14 18 20 0 14 52 92 73 107 9 7 26 31 37 52 11 21 26 43 33 47 8 4 26 27 40 50 15 23 33 45 40 50 8 4 22 22 33 38 18 29 177 213 257 297 20 22 37 44 37 48 0 5 9 14 20 20 11 6 26 23 34 38 8 15 25 39 38 53 14 14 37 47 51 72 15 25 33 52 40 59 7 7 23 36 36 63 12 28 28 64 36 80 70 152 124 451 110 610 -13 146 -54 361 -75 390 -4 6 -20 42 -35 80 -16 39 -36 81 -45 95 -9 14 -30 44 -46 68 -16 24 -33 50 -39 59 -29 44 -152 183 -186 208 -15 11 -40 34 -56 50 -16 17 -64 55 -106 85 -42 30 -76 58 -77 63 0 4 -7 7 -15 7 -8 0 -15 5 -15 10 0 6 -4 10 -10 10 -5 0 -39 20 -76 45 -36 25 -68 45 -70 45 -3 0 -38 19 -77 42 -73 42 -322 169 -394 200 -21 9 -54 23 -73 32 -20 8 -58 21 -85 28 -28 7 -53 16 -56 21 -7 10 -153 56 -204 64 -22 3 -45 9 -50 14 -6 4 -29 12 -50 18 -22 6 -67 17 -100 26 -33 8 -96 20 -140 26 -44 5 -82 14 -85 19 -6 9 -234 55 -325 65 -33 4 -62 10 -65 14 -6 8 -196 52 -275 62 -33 5 -73 15 -90 23 -38 19 -195 66 -220 66 -10 0 -26 6 -34 14 -18 16 -74 38 -169 65 -34 10 -71 26 -81 35 -9 9 -24 16 -32 16 -9 0 -24 7 -35 15 -10 8 -29 15 -42 15 -23 0 -62 16 -72 30 -9 11 -90 50 -105 50 -20 0 -85 32 -85 42 0 4 -9 8 -19 8 -11 0 -22 4 -26 9 -3 5 -29 17 -59 25 -29 9 -65 25 -80 37 -15 12 -46 27 -69 34 -65 20 -127 46 -127 54 0 9 -44 23 -165 51 -49 12 -98 26 -107 31 -24 12 -168 12 -168 -1z"/>
<path d="M1806 6880 c-15 -5 -36 -15 -45 -23 -9 -8 -37 -24 -62 -35 -48 -23 -61 -34 -124 -103 -51 -56 -95 -115 -95 -127 0 -6 -6 -12 -12 -15 -13 -5 -109 -191 -144 -277 -10 -25 -24 -52 -31 -61 -7 -8 -13 -21 -13 -28 0 -7 -17 -65 -39 -129 -80 -240 -151 -532 -183 -752 -8 -58 -12 -242 -13 -570 -1 -344 -5 -505 -14 -555 -21 -119 -61 -277 -86 -340 -65 -168 -78 -200 -86 -214 -4 -9 -18 -38 -30 -66 -12 -27 -36 -81 -54 -120 -18 -38 -40 -92 -50 -120 -9 -27 -21 -58 -27 -69 -11 -21 -32 -84 -53 -164 -8 -29 -15 -87 -15 -127 0 -43 -4 -75 -10 -75 -12 0 -14 -97 -1 -104 4 -3 11 -52 14 -108 4 -74 13 -125 32 -183 15 -44 30 -82 34 -85 3 -3 12 -23 20 -44 22 -64 110 -172 196 -241 28 -22 52 -43 55 -46 3 -4 36 -21 75 -38 38 -17 72 -35 75 -39 9 -12 219 -60 310 -71 47 -6 129 -15 184 -21 99 -12 286 -49 341 -69 17 -6 68 -22 115 -37 122 -37 363 -125 374 -135 6 -5 17 -9 25 -9 8 0 69 -20 136 -44 187 -69 359 -122 490 -152 97 -22 145 -28 250 -28 116 0 137 3 195 26 139 55 241 192 276 372 15 74 15 89 1 164 -21 107 -87 246 -149 311 -16 16 -28 32 -28 36 0 13 -112 145 -132 156 -10 5 -18 15 -18 22 0 11 -12 25 -102 118 -21 21 -38 41 -38 45 0 4 -15 23 -32 44 -63 71 -83 97 -122 156 -76 115 -84 129 -97 174 -7 25 -20 56 -29 70 -19 29 -50 109 -50 130 0 7 -6 21 -14 29 -14 17 -55 132 -77 216 -7 28 -15 52 -19 55 -9 7 -45 123 -61 195 -7 33 -16 62 -20 65 -10 7 -46 151 -65 257 -8 48 -18 90 -23 93 -9 6 -46 187 -61 303 -7 48 -16 87 -20 87 -8 0 -36 151 -65 345 -9 61 -21 112 -26 113 -5 2 -9 13 -9 24 0 10 -6 56 -14 101 -8 45 -22 141 -31 212 -10 72 -21 132 -25 135 -15 11 -68 514 -77 738 -3 83 -10 152 -15 152 -4 0 -8 12 -8 28 0 15 -4 43 -9 62 -5 19 -14 61 -22 93 -7 35 -22 67 -36 80 -12 12 -23 25 -23 30 0 4 -13 26 -30 48 -30 41 -63 65 -132 95 -21 9 -38 20 -38 24 0 25 -225 40 -294 20z"/>
</g>


</svg>