<?xml version="1.0" standalone="no"?>
<!DOCTYPE svg PUBLIC "-//W3C//DTD SVG 20010904//EN"
 "http://www.w3.org/TR/2001/REC-SVG-20010904/DTD/svg10.dtd">
<svg version="1.0" xmlns="http://www.w3.org/2000/svg"
 width="640.000000pt" height="1280.000000pt" viewBox="0 0 640.000000 1280.000000"
 preserveAspectRatio="xMidYMid meet">
<g transform="translate(0.000000,1280.000000) scale(0.100000,-0.100000)"
fill="#202020" stroke="none">
<path d="M2958 11343 c-10 -2 -18 -13 -18 -24 0 -18 -10 -23 -37 -20 -17 2
-93 -37 -93 -48 0 -5 -11 -22 -24 -38 -12 -15 -31 -51 -40 -80 -11 -33 -24
-54 -37 -58 -11 -4 -19 -15 -19 -29 0 -13 -9 -31 -20 -41 -11 -10 -20 -26 -20
-35 0 -10 -7 -24 -16 -31 -9 -8 -27 -30 -40 -49 -13 -19 -40 -56 -59 -82 -67
-91 -97 -235 -74 -355 7 -37 16 -72 20 -78 4 -5 10 -40 14 -77 6 -51 15 -79
40 -119 19 -29 44 -88 56 -136 27 -103 42 -123 92 -128 49 -4 62 -16 76 -68 9
-29 21 -48 41 -59 16 -9 30 -27 32 -40 3 -20 8 -23 44 -20 34 2 42 -1 54 -23
10 -19 11 -28 2 -37 -7 -7 -12 -18 -12 -25 0 -7 -9 -22 -20 -33 -17 -17 -19
-28 -14 -63 8 -48 48 -92 111 -120 37 -17 39 -17 78 3 21 11 54 20 73 20 41 0
96 41 123 93 11 20 26 37 34 37 20 0 29 20 16 33 -8 8 -20 2 -45 -22 -27 -26
-40 -32 -59 -27 -34 8 -43 75 -17 125 11 20 22 44 25 55 4 15 8 16 20 6 7 -6
11 -18 8 -26 -10 -25 12 -15 51 25 24 25 36 45 33 55 -4 9 14 36 47 72 l54 56
-6 63 c-3 42 -1 65 7 70 9 5 9 10 1 20 -8 9 -7 33 4 86 14 68 26 195 46 458 6
81 4 112 -7 138 -7 19 -18 68 -23 111 -14 115 -103 343 -142 364 -88 48 -158
74 -243 88 -27 5 -61 11 -75 13 -14 3 -33 3 -42 0z m175 -1700 c10 -6 9 -81
-2 -87 -4 -3 -16 3 -26 14 -10 11 -28 20 -40 20 -28 0 -59 34 -51 56 5 13 15
15 59 9 28 -4 55 -9 60 -12z m45 -105 c-4 -27 -28 -36 -28 -10 0 20 8 32 22
32 5 0 8 -10 6 -22z"/>
<path d="M4101 11162 c-5 -9 -26 -26 -47 -37 -22 -11 -61 -50 -91 -90 -30 -38
-75 -97 -101 -130 -46 -60 -82 -143 -122 -285 -9 -36 -30 -96 -45 -135 -53
-140 -73 -221 -80 -333 -9 -140 8 -296 41 -373 13 -31 24 -65 24 -76 0 -11 12
-30 26 -44 14 -13 32 -39 39 -57 16 -36 33 -45 124 -63 52 -10 67 -9 94 3 18
9 62 30 99 47 37 17 71 37 75 45 4 7 22 21 38 32 162 101 345 275 345 328 0 9
7 19 15 22 24 9 52 83 59 154 2 14 6 33 11 43 4 10 3 29 -4 43 -9 20 -8 31 3
53 22 41 18 111 -6 138 -15 16 -19 30 -15 52 4 19 1 33 -8 41 -8 7 -12 16 -9
22 3 5 0 16 -7 24 -9 11 -8 18 7 35 16 17 16 22 4 29 -21 14 -31 12 -52 -7
-28 -25 -39 -5 -22 42 7 22 14 46 14 54 0 7 13 29 30 47 l29 34 -24 36 c-22
33 -45 92 -45 119 0 16 -57 73 -80 80 -11 4 -27 20 -35 36 -11 20 -23 29 -40
29 -13 0 -39 13 -58 29 -23 20 -37 27 -47 21 -8 -5 -27 -7 -42 -4 -15 2 -41 6
-58 9 -21 3 -32 -1 -39 -13z m-147 -306 c-6 -15 -24 -23 -24 -11 0 8 24 34 28
30 1 -1 0 -10 -4 -19z m56 -53 c0 -5 -4 -14 -9 -22 -11 -17 -32 -5 -24 14 5
15 33 21 33 8z"/>
<path d="M3630 10525 c-16 -19 0 -19 26 0 16 12 16 14 3 15 -9 0 -22 -7 -29
-15z"/>
<path d="M2195 10140 c10 -11 20 -20 23 -20 3 0 -3 9 -13 20 -10 11 -20 20
-23 20 -3 0 3 -9 13 -20z"/>
<path d="M2221 10094 c0 -11 3 -14 6 -6 3 7 2 16 -1 19 -3 4 -6 -2 -5 -13z"/>
<path d="M1943 10073 c-7 -2 -13 -11 -13 -18 0 -8 -8 -16 -18 -19 -10 -4 -33
-21 -51 -39 -31 -33 -32 -35 -21 -82 11 -47 10 -49 -22 -82 -24 -25 -28 -33
-15 -33 9 0 17 -4 17 -10 0 -5 6 -10 14 -10 28 0 28 -34 0 -57 -23 -18 -25
-24 -15 -37 7 -8 25 -16 39 -18 43 -5 35 -38 -15 -66 -45 -25 -55 -42 -25 -42
10 0 24 -11 31 -23 11 -20 10 -29 -7 -56 -22 -36 -83 -71 -124 -71 -33 0 -40
-10 -23 -33 8 -11 19 -15 30 -10 19 7 19 9 -3 -64 -8 -24 -7 -36 3 -50 13 -17
14 -17 29 2 l15 20 6 -20 c4 -11 11 -27 16 -35 28 -45 22 -70 -15 -70 -17 0
-26 -7 -30 -25 -7 -27 -25 -32 -43 -14 -7 7 -19 9 -29 5 -15 -6 -12 -12 21
-46 21 -21 48 -40 59 -42 18 -3 21 -9 18 -42 -4 -43 7 -56 50 -56 18 0 33 -9
44 -25 18 -28 55 -33 74 -10 14 17 11 23 -22 39 -33 17 -32 31 6 72 50 55 47
70 -15 78 -39 5 -50 10 -48 24 2 9 -1 28 -5 41 -13 39 13 44 51 10 39 -34 63
-37 63 -9 0 37 19 20 22 -20 4 -48 22 -58 26 -14 3 26 8 33 34 38 47 9 98 7
98 -4 0 -5 10 -20 23 -32 13 -14 22 -35 22 -53 0 -23 5 -31 23 -33 14 -2 22
-10 22 -23 0 -22 13 -25 29 -5 9 11 9 19 0 34 -10 16 -10 24 3 44 10 15 14 39
12 68 -4 48 8 70 38 70 16 0 19 5 14 24 -9 38 3 58 30 52 17 -5 24 -2 24 9 0
22 37 18 43 -5 3 -11 10 -20 16 -20 16 0 14 83 -3 105 -13 18 -14 18 -41 -3
-47 -37 -73 -22 -40 22 25 33 18 56 -20 72 -21 9 -37 23 -39 37 -32 145 -56
225 -88 292 -27 56 -37 87 -33 106 4 19 1 28 -9 32 -10 4 -16 18 -16 36 0 23
-4 29 -16 24 -21 -8 -76 46 -69 67 5 12 4 13 -6 3 -15 -15 -75 -17 -84 -3 -7
11 -22 12 -42 3z"/>
<path d="M2420 9660 c0 -5 5 -10 10 -10 6 0 10 5 10 10 0 6 -4 10 -10 10 -5 0
-10 -4 -10 -10z"/>
<path d="M4978 9624 c-7 -6 -115 -16 -165 -15 -26 1 -35 -5 -48 -29 -10 -19
-23 -30 -37 -30 -30 0 -121 -100 -175 -193 -11 -19 -81 -55 -110 -56 -16 -1
-46 68 -39 91 5 22 -9 23 -26 3 -45 -53 -88 -95 -99 -95 -6 0 -17 -7 -24 -17
-7 -9 -17 -13 -23 -9 -15 9 -16 43 -2 51 15 10 12 25 -6 25 -12 0 -14 7 -9 29
9 43 -11 47 -31 6 -9 -20 -29 -42 -44 -50 -39 -20 -48 -70 -18 -102 12 -13 27
-23 35 -23 16 0 17 -42 1 -58 -30 -30 -94 1 -68 34 12 13 6 15 -50 12 -68 -3
-91 -22 -41 -33 47 -10 35 -36 -21 -50 -37 -9 -25 -26 12 -18 32 6 41 -12 18
-35 -18 -18 42 -15 66 3 21 16 66 20 66 7 0 -18 -52 -56 -78 -57 -23 0 -27 -4
-24 -25 3 -31 8 -35 26 -21 18 15 22 8 30 -50 5 -35 13 -49 32 -60 18 -9 24
-19 20 -32 -2 -11 0 -28 7 -38 9 -14 8 -26 -1 -52 -7 -18 -12 -45 -12 -60 0
-24 3 -26 31 -20 28 5 30 4 21 -13 -6 -11 -20 -28 -31 -38 -20 -18 -29 -56
-14 -56 3 0 24 18 46 40 29 31 44 39 59 34 12 -3 49 -6 82 -6 51 0 64 -3 74
-19 7 -10 9 -19 5 -18 -33 5 -63 -3 -63 -17 0 -12 6 -15 24 -10 26 6 39 -5 50
-41 6 -19 2 -25 -18 -33 -14 -5 -26 -14 -26 -20 0 -5 -14 -10 -31 -10 -25 0
-32 -6 -45 -36 -26 -63 -4 -96 65 -98 34 -1 48 -28 31 -61 -18 -33 -5 -47 58
-60 l47 -10 3 -48 c2 -27 8 -48 15 -48 7 -1 28 -2 46 -3 31 -1 36 -5 42 -34 3
-18 3 -35 -2 -38 -19 -11 -8 -24 21 -24 19 0 33 -7 40 -20 6 -11 21 -20 34
-20 40 0 40 2 1 97 -13 30 -15 46 -8 55 8 9 4 28 -12 65 -18 41 -32 56 -65 73
-30 16 -45 19 -53 11 -25 -25 -77 4 -77 42 0 10 -9 34 -20 55 -19 35 -19 38
-3 50 9 6 23 12 31 12 15 0 76 -43 110 -78 18 -19 29 -22 53 -17 23 5 34 3 44
-12 13 -17 14 -16 15 10 0 21 -6 30 -20 34 -24 6 -24 6 -5 42 16 32 33 41 77
41 35 0 34 -22 -2 -30 -13 -3 -25 -11 -28 -18 -5 -15 13 -16 39 -2 16 9 21 7
29 -16 17 -44 31 -15 18 35 -9 34 -9 46 0 49 7 2 12 11 12 21 0 10 15 25 37
35 34 16 38 16 49 2 15 -22 24 -20 24 4 0 27 16 25 36 -5 9 -15 26 -25 39 -25
20 0 23 5 21 33 -1 26 3 33 22 35 14 2 22 10 22 23 0 37 19 59 50 59 23 0 30
4 30 20 0 15 7 20 24 20 21 0 25 -6 28 -32 4 -45 38 -53 38 -10 0 21 8 36 28
50 22 17 25 23 15 33 -23 23 -14 38 30 50 58 17 80 42 72 79 -6 27 -4 30 20
30 33 0 42 23 20 56 -13 21 -15 31 -6 50 6 13 17 24 25 24 11 0 26 20 26 35 0
8 -89 36 -106 33 -24 -4 -31 29 -7 35 10 3 35 8 56 12 20 3 37 12 37 19 0 7
-16 29 -36 50 -40 41 -38 57 9 49 l32 -5 2 47 c1 43 -2 51 -34 81 -28 27 -34
38 -29 59 4 15 2 25 -4 25 -6 0 -16 13 -21 29 -8 21 -15 28 -29 24 -12 -3 -32
7 -56 31 -21 20 -56 41 -78 47 -89 24 -141 42 -150 50 -11 10 -89 12 -98 3z
m-140 -139 c-3 -14 1 -30 8 -36 18 -15 18 -39 0 -39 -7 0 -30 7 -50 15 l-37
16 27 34 c32 42 59 47 52 10z m80 -73 c2 -7 -3 -12 -12 -12 -9 0 -16 7 -16 16
0 17 22 14 28 -4z m-78 -170 c0 -13 -12 -22 -22 -16 -10 6 -1 24 13 24 5 0 9
-4 9 -8z m80 -266 c0 -3 -4 -8 -10 -11 -5 -3 -10 -1 -10 4 0 6 5 11 10 11 6 0
10 -2 10 -4z m-128 -161 c0 -5 -5 -11 -11 -13 -6 -2 -11 4 -11 13 0 9 5 15 11
13 6 -2 11 -8 11 -13z m-127 -45 c3 -5 1 -10 -4 -10 -6 0 -11 5 -11 10 0 6 2
10 4 10 3 0 8 -4 11 -10z m130 -20 c3 -5 -1 -10 -10 -10 -9 0 -13 5 -10 10 3
6 8 10 10 10 2 0 7 -4 10 -10z"/>
<path d="M2432 9568 c6 -18 28 -21 28 -4 0 9 -7 16 -16 16 -9 0 -14 -5 -12
-12z"/>
<path d="M1715 9511 c-3 -5 -1 -12 5 -16 5 -3 10 1 10 9 0 18 -6 21 -15 7z"/>
<path d="M2660 9512 c0 -5 7 -17 15 -28 14 -18 14 -18 15 9 0 17 -5 27 -15 27
-8 0 -15 -4 -15 -8z"/>
<path d="M3693 9430 c-28 -48 -30 -82 -5 -78 12 2 18 -5 20 -24 4 -32 7 -33
42 -13 25 14 25 14 3 15 -19 0 -23 6 -23 30 0 18 -6 33 -15 36 -8 4 -15 12
-15 19 0 7 7 18 15 25 16 13 20 30 8 30 -5 0 -18 -18 -30 -40z"/>
<path d="M3821 9453 c-20 -4 -22 -9 -17 -36 9 -43 19 -50 56 -42 40 9 47 27
23 59 -18 26 -21 27 -62 19z"/>
<path d="M4025 9300 c3 -5 12 -10 20 -10 8 0 17 5 20 10 4 6 -5 10 -20 10 -15
0 -24 -4 -20 -10z"/>
<path d="M3856 9188 c-20 -39 -20 -40 2 -36 12 2 17 13 17 36 0 17 -1 32 -2
32 -1 0 -9 -14 -17 -32z"/>
<path d="M3605 9200 c-3 -5 -1 -10 4 -10 6 0 11 5 11 10 0 6 -2 10 -4 10 -3 0
-8 -4 -11 -10z"/>
<path d="M3294 9029 c-3 -6 -15 -9 -25 -6 -14 4 -19 0 -19 -13 0 -27 -21 -36
-36 -15 -16 22 -44 13 -44 -15 0 -14 -7 -20 -21 -20 -12 0 -23 -8 -26 -20 -4
-15 -13 -19 -35 -17 -27 2 -32 -2 -43 -33 -8 -22 -18 -34 -29 -34 -11 1 -16
-6 -16 -22 0 -21 -4 -23 -24 -18 -19 4 -25 1 -30 -20 -4 -16 -13 -26 -25 -26
-10 0 -23 -11 -29 -24 -6 -14 -18 -23 -29 -23 -16 2 -18 -8 -21 -72 -2 -52 -7
-78 -18 -86 -12 -8 -13 -17 -5 -37 7 -19 6 -31 -5 -47 -8 -11 -19 -21 -23 -21
-14 0 -7 116 7 133 7 9 12 28 9 44 l-4 28 -8 -34 c-5 -20 -16 -36 -26 -38 -15
-4 -17 -9 -8 -25 14 -26 4 -48 -21 -48 -24 0 -26 -9 -3 -25 21 -15 11 -45 -15
-45 -11 0 -25 -6 -31 -14 -9 -11 -7 -15 10 -19 15 -4 20 -12 17 -29 -2 -19 -8
-23 -36 -20 -25 2 -32 -2 -32 -16 0 -10 5 -23 12 -30 17 -17 -29 -67 -48 -51
-10 8 -10 16 -2 34 13 28 5 55 -16 55 -12 0 -14 -7 -10 -30 7 -34 -16 -51 -41
-30 -19 16 -19 30 0 30 16 0 20 12 8 23 -10 10 -42 -23 -37 -37 3 -7 -2 -19
-11 -26 -8 -7 -15 -19 -15 -26 0 -8 -9 -19 -20 -26 -11 -7 -20 -21 -20 -30 0
-27 -25 -22 -38 8 -10 20 -18 25 -40 22 -19 -2 -27 -9 -28 -23 -1 -11 -2 -26
-3 -32 -2 -21 -32 -15 -38 7 -3 11 -9 20 -14 20 -5 0 -3 -11 3 -25 9 -21 9
-29 -5 -42 -15 -15 -17 -15 -23 0 -5 15 -54 25 -54 12 0 -7 19 -31 43 -53 19
-18 23 -47 7 -57 -6 -4 -8 -37 -5 -86 6 -83 3 -89 -36 -69 -10 6 -19 7 -19 2
0 -14 26 -33 41 -30 8 2 13 -13 16 -49 2 -28 10 -64 18 -80 8 -15 15 -45 15
-65 0 -20 5 -40 11 -43 6 -4 7 -20 4 -38 -7 -32 -7 -32 10 -9 22 30 37 18 34
-28 -2 -21 2 -44 9 -52 6 -8 8 -25 5 -38 l-7 -25 28 18 c22 15 30 16 42 6 14
-11 15 -8 9 23 -8 41 -1 48 38 41 26 -5 28 -9 25 -47 -3 -36 -6 -41 -30 -44
-31 -4 -35 -14 -13 -36 8 -8 15 -22 15 -31 0 -13 -6 -15 -30 -10 -17 4 -30 2
-30 -3 0 -10 22 -22 48 -28 8 -1 15 -4 15 -6 42 -85 50 -95 68 -91 13 4 19 0
19 -11 0 -9 13 -25 30 -34 16 -9 30 -22 30 -29 0 -6 10 -19 22 -27 19 -14 23
-13 46 4 31 25 77 26 94 2 21 -30 51 -41 102 -36 61 6 65 8 65 42 1 69 3 74
22 79 12 3 19 14 19 29 0 27 0 27 34 14 32 -12 33 -26 4 -36 -40 -12 -55 -64
-19 -64 11 0 21 -4 23 -10 2 -5 23 -12 48 -15 25 -3 39 -2 33 1 -7 3 -13 14
-13 25 0 10 -6 19 -14 19 -12 0 -11 9 4 47 27 72 61 69 41 -4 l-10 -38 19 23
c16 19 22 21 44 11 29 -14 31 -20 14 -38 -11 -10 -9 -15 7 -27 11 -8 30 -17
43 -21 27 -6 28 -31 6 -80 -19 -38 -13 -48 31 -58 30 -7 30 -7 8 9 -28 20 -29
34 -5 52 24 19 39 17 64 -8 19 -19 22 -20 33 -5 15 21 35 22 35 2 0 -21 16
-19 41 6 13 13 18 27 14 39 -5 15 1 22 24 32 30 13 31 14 16 42 -11 21 -13 32
-5 40 14 14 52 -33 43 -54 -10 -24 -9 -49 2 -47 5 1 9 8 7 15 -4 16 4 15 34
-4 16 -11 23 -22 19 -33 -4 -9 -8 -35 -10 -59 -2 -24 -10 -50 -17 -59 -11 -14
-9 -15 22 -9 65 14 69 16 72 49 2 24 8 33 26 35 18 3 22 10 22 37 0 18 6 36
13 38 6 3 0 6 -15 6 -19 1 -28 -4 -28 -14 0 -8 -7 -15 -15 -15 -8 0 -15 5 -15
12 0 16 49 58 67 58 7 0 13 5 13 10 0 13 -27 13 -35 0 -7 -11 -25 -4 -25 10 0
14 55 40 84 40 14 0 28 5 31 10 4 6 -5 10 -19 10 -28 0 -33 9 -14 28 17 17 36
15 65 -8 14 -11 29 -18 33 -15 5 3 11 28 15 55 7 53 18 68 38 52 7 -5 21 -12
31 -16 16 -5 17 -4 7 8 -7 8 -11 30 -9 48 2 28 7 34 31 36 20 3 27 -1 27 -14
0 -14 2 -15 16 -3 19 15 84 22 84 9 0 -5 -4 -12 -10 -15 -15 -9 -12 -45 4 -45
8 0 16 10 18 23 2 14 11 23 26 25 12 2 22 10 22 18 0 8 7 14 15 14 8 0 25 12
38 26 28 30 67 26 67 -7 0 -12 7 -19 18 -19 15 0 19 7 18 36 -1 29 -7 39 -29
50 -15 8 -27 21 -27 29 0 28 117 16 197 -21 50 -23 89 -18 111 14 32 45 34 83
6 109 -25 23 -32 71 -14 89 15 15 4 37 -25 51 -22 10 -27 8 -35 -7 -7 -14 -20
-18 -44 -17 -51 4 -76 31 -76 83 0 24 -4 46 -10 49 -15 9 -12 57 5 79 23 30
19 47 -9 40 -19 -4 -26 -1 -31 15 -5 17 -10 19 -31 11 -14 -6 -33 -10 -42 -9
-14 0 -13 3 6 16 27 19 28 33 3 55 -18 15 -19 15 -24 -4 -4 -15 -11 -19 -27
-15 -15 4 -25 -2 -38 -21 -21 -34 -32 -41 -49 -35 -8 3 -13 -2 -13 -16 0 -23
-43 -56 -60 -46 -5 3 -10 16 -10 27 0 38 -23 86 -47 99 -22 12 -23 17 -17 65
5 46 4 53 -15 63 -11 6 -18 17 -15 25 3 9 -4 20 -17 27 -22 11 -22 12 -4 25
15 11 16 16 5 29 -7 9 -21 13 -31 10 -24 -8 -26 21 -4 45 23 25 9 87 -21 94
-13 4 -24 14 -24 22 0 10 6 14 14 11 8 -3 22 3 32 14 17 19 17 20 -4 26 -12 3
-22 11 -22 18 0 8 -8 11 -20 8 -16 -4 -20 0 -20 20 0 13 -7 30 -15 37 -8 7
-15 19 -15 27 0 10 -6 12 -20 8 -17 -6 -20 -2 -20 29 0 29 4 36 20 36 11 0 20
5 20 11 0 7 -11 9 -26 6 -19 -3 -38 5 -75 34 -27 22 -49 48 -49 58 0 25 -64
105 -98 121 -56 27 -69 31 -162 50 -112 23 -107 23 -116 9z m-311 -275 c3 -4
0 -12 -7 -20 -8 -7 -11 -24 -9 -38 6 -29 -2 -33 -23 -12 -18 19 -18 35 3 58
17 19 26 22 36 12z m312 -284 c-3 -5 -10 -10 -16 -10 -5 0 -9 5 -9 10 0 6 7
10 16 10 8 0 12 -4 9 -10z m-715 -346 c0 -8 -4 -12 -10 -9 -5 3 -10 10 -10 16
0 5 5 9 10 9 6 0 10 -7 10 -16z m-28 -94 c-10 -17 -10 -21 3 -26 19 -8 20 -24
1 -24 -8 0 -16 -5 -18 -10 -3 -11 -68 -2 -68 10 0 16 76 87 85 78 6 -5 5 -16
-3 -28z m146 28 c-6 -18 -28 -21 -28 -4 0 9 7 16 16 16 9 0 14 -5 12 -12z
m207 -23 c0 -30 -39 -27 -43 3 -3 20 0 23 20 20 15 -2 23 -10 23 -23z m93 -22
c2 -16 -3 -20 -28 -20 -22 0 -30 5 -30 18 0 32 53 35 58 2z m64 2 c0 -5 -5
-11 -11 -13 -6 -2 -11 4 -11 13 0 9 5 15 11 13 6 -2 11 -8 11 -13z m-302 -75
c0 -5 -5 -10 -11 -10 -5 0 -7 5 -4 10 3 6 8 10 11 10 2 0 4 -4 4 -10z m-285
-37 c-21 -14 -45 -17 -45 -5 0 10 43 29 54 24 5 -3 1 -11 -9 -19z m404 3 c10
-12 8 -13 -8 -9 -12 3 -21 9 -21 14 0 14 16 11 29 -5z m81 -11 c0 -8 -4 -15
-10 -15 -5 0 -10 7 -10 15 0 8 5 15 10 15 6 0 10 -7 10 -15z m-460 -71 c0 -8
-7 -14 -15 -14 -10 0 -15 10 -15 26 0 22 2 25 15 14 8 -7 15 -19 15 -26z m503
17 c16 -16 -3 -45 -32 -49 -17 -3 -20 -8 -16 -23 4 -13 0 -28 -11 -40 -25 -27
-37 -24 -31 10 5 24 2 30 -16 35 -12 3 -31 3 -44 0 -18 -5 -23 -1 -29 20 -8
35 1 43 24 23 26 -24 32 -21 32 14 l0 31 55 -4 c31 -3 61 -10 68 -17z m-553
-1 c0 -5 -7 -10 -15 -10 -8 0 -15 5 -15 10 0 6 7 10 15 10 8 0 15 -4 15 -10z
m313 -17 c12 -11 -14 -33 -39 -33 -31 0 -32 27 -1 33 12 2 25 5 28 6 3 0 9 -2
12 -6z m1587 -8 c-6 -12 -41 -8 -55 6 -7 7 1 9 25 7 19 -2 33 -7 30 -13z
m-1720 -5 c0 -5 -4 -10 -10 -10 -5 0 -10 5 -10 10 0 6 5 10 10 10 6 0 10 -4
10 -10z m-170 -20 c0 -5 -4 -10 -10 -10 -5 0 -10 5 -10 10 0 6 5 10 10 10 6 0
10 -4 10 -10z m140 -15 c0 -8 -4 -15 -10 -15 -5 0 -10 7 -10 15 0 8 5 15 10
15 6 0 10 -7 10 -15z m463 -20 c-4 -15 -36 -12 -41 3 -3 9 3 13 19 10 13 -1
23 -7 22 -13z m-283 1 c0 -3 -4 -8 -10 -11 -5 -3 -10 -1 -10 4 0 6 5 11 10 11
6 0 10 -2 10 -4z m358 -19 c2 -10 -3 -17 -11 -17 -18 0 -39 24 -30 34 12 12
38 2 41 -17z m-40 -61 c2 -11 -9 -30 -27 -46 -27 -26 -28 -28 -10 -33 10 -3
19 -10 19 -16 0 -18 -31 -25 -51 -13 -10 7 -32 12 -49 12 -39 0 -51 27 -23 49
11 9 18 22 16 28 -6 18 16 26 23 9 7 -19 54 -21 54 -3 0 17 22 38 35 34 5 -2
12 -12 13 -21z m-298 -26 c0 -5 -4 -10 -10 -10 -5 0 -10 5 -10 10 0 6 5 10 10
10 6 0 10 -4 10 -10z m387 -5 c3 -9 3 -19 -1 -22 -7 -7 -36 16 -36 28 0 15 30
10 37 -6z m-56 -10 c0 -6 11 -16 25 -23 27 -14 24 -32 -6 -32 -21 0 -25 4 -34
43 -5 20 -3 28 4 25 6 -2 11 -8 11 -13z m-307 -31 c21 -8 21 -34 0 -34 -23 0
-55 20 -49 31 7 10 26 12 49 3z m396 -10 c0 -9 -5 -14 -12 -12 -18 6 -21 28
-4 28 9 0 16 -7 16 -16z m1320 -44 c0 -5 -7 -10 -15 -10 -8 0 -15 5 -15 10 0
6 7 10 15 10 8 0 15 -4 15 -10z m-634 -64 c3 -8 15 -16 26 -19 32 -9 15 -32
-22 -30 -38 1 -53 19 -39 45 12 22 28 23 35 4z m-63 -27 c-17 -17 -37 -1 -22
17 8 10 15 12 23 4 7 -7 7 -13 -1 -21z m278 -12 c-13 -13 -26 -3 -16 12 3 6
11 8 17 5 6 -4 6 -10 -1 -17z m-66 3 c-3 -5 -10 -10 -16 -10 -5 0 -9 5 -9 10
0 6 7 10 16 10 8 0 12 -4 9 -10z m-325 -25 c13 -16 6 -35 -15 -35 -18 0 -28
17 -21 35 7 19 20 19 36 0z m-70 -40 c0 -16 -27 -32 -37 -21 -7 7 16 36 28 36
5 0 9 -7 9 -15z m108 -26 c-2 -6 -8 -10 -13 -10 -5 0 -11 4 -13 10 -2 6 4 11
13 11 9 0 15 -5 13 -11z m-1068 -27 l22 -18 -25 -11 c-20 -10 -28 -9 -37 2
-13 16 -7 45 9 45 5 0 19 -8 31 -18z m71 5 c-1 -12 -15 -9 -19 4 -3 6 1 10 8
8 6 -3 11 -8 11 -12z m744 -5 c34 -28 46 -48 39 -66 -10 -27 -31 -18 -57 26
-33 56 -24 76 18 40z m95 -2 c0 -5 -4 -10 -9 -10 -6 0 -13 5 -16 10 -3 6 1 10
9 10 9 0 16 -4 16 -10z m144 -51 c-10 -11 -23 -19 -31 -19 -18 0 -16 25 3 45
13 12 19 13 30 4 12 -10 12 -15 -2 -30z m-56 19 c-6 -18 -28 -21 -28 -4 0 9 7
16 16 16 9 0 14 -5 12 -12z m-255 -63 c-19 -26 -36 -28 -41 -4 -3 14 36 39 51
32 4 -3 -1 -15 -10 -28z m-522 -8 c-6 -6 -11 -19 -11 -29 0 -10 -7 -18 -15
-18 -21 0 -19 47 2 59 21 12 39 3 24 -12z m329 -12 c0 -8 -4 -15 -10 -15 -5 0
-10 7 -10 15 0 8 5 15 10 15 6 0 10 -7 10 -15z m424 -27 c3 -17 2 -36 -3 -41
-15 -15 -44 1 -37 19 3 9 6 24 6 35 0 32 27 21 34 -13z m-208 1 c8 -14 -14
-29 -33 -22 -7 3 -13 11 -13 19 0 17 36 19 46 3z m144 -4 c0 -8 -9 -15 -20
-15 -20 0 -26 11 -13 23 12 13 33 7 33 -8z m-155 -63 c0 -18 -20 -15 -23 4 -3
10 1 15 10 12 7 -3 13 -10 13 -16z"/>
<path d="M1690 8996 c0 -10 8 -16 22 -16 12 0 19 1 17 3 -2 1 -12 9 -21 16
-15 12 -18 11 -18 -3z"/>
<path d="M2040 8985 c-7 -9 -11 -18 -8 -20 3 -3 11 1 18 10 7 9 11 18 8 20 -3
3 -11 -1 -18 -10z"/>
<path d="M4011 8726 c-19 -20 -32 -38 -30 -40 12 -12 51 9 59 30 6 15 16 23
27 21 10 -1 19 3 21 8 1 6 -8 11 -20 13 -16 2 -34 -9 -57 -32z"/>
<path d="M4200 8576 c0 -16 29 -55 35 -47 3 6 10 11 16 11 12 0 12 -37 -1 -45
-5 -3 -10 -11 -10 -17 0 -7 13 1 29 16 18 17 31 24 35 17 11 -17 26 -13 26 8
0 29 -26 46 -46 30 -15 -12 -19 -11 -32 9 -12 18 -52 32 -52 18z"/>
<path d="M4886 8394 c-9 -22 -8 -24 9 -24 8 0 15 9 15 20 0 24 -15 27 -24 4z"/>
<path d="M4020 8390 c0 -5 5 -10 10 -10 6 0 10 5 10 10 0 6 -4 10 -10 10 -5 0
-10 -4 -10 -10z"/>
<path d="M4101 8253 c1 -17 3 -21 6 -10 3 11 14 17 34 17 16 0 29 5 29 10 0 6
-16 10 -35 10 -32 0 -35 -3 -34 -27z"/>
<path d="M4058 8213 c7 -3 16 -2 19 1 4 3 -2 6 -13 5 -11 0 -14 -3 -6 -6z"/>
<path d="M4138 8213 c7 -3 16 -2 19 1 4 3 -2 6 -13 5 -11 0 -14 -3 -6 -6z"/>
<path d="M4185 8200 c3 -5 8 -10 11 -10 2 0 4 5 4 10 0 6 -5 10 -11 10 -5 0
-7 -4 -4 -10z"/>
<path d="M4067 8167 c-15 -10 -9 -12 35 -11 30 0 53 5 56 12 5 16 -69 16 -91
-1z"/>
<path d="M4202 8159 c-7 -10 -23 -19 -37 -19 -18 0 -25 -5 -25 -20 0 -17 4
-19 28 -14 32 8 62 32 62 50 0 22 -15 24 -28 3z"/>
<path d="M2191 8116 c-7 -8 -11 -25 -9 -38 3 -22 3 -22 21 6 21 31 10 58 -12
32z"/>
<path d="M4094 8066 c-10 -33 -10 -34 13 -23 26 12 28 17 11 40 -12 16 -14 14
-24 -17z"/>
<path d="M2170 7920 c0 -5 5 -10 11 -10 5 0 7 5 4 10 -3 6 -8 10 -11 10 -2 0
-4 -4 -4 -10z"/>
<path d="M4440 7911 c0 -11 -4 -22 -9 -25 -10 -6 8 -66 20 -66 6 0 19 60 19
93 0 9 -7 17 -15 17 -8 0 -15 -9 -15 -19z"/>
<path d="M4500 7900 c0 -5 5 -10 10 -10 6 0 10 5 10 10 0 6 -4 10 -10 10 -5 0
-10 -4 -10 -10z"/>
<path d="M2120 7890 c0 -5 5 -10 11 -10 5 0 7 5 4 10 -3 6 -8 10 -11 10 -2 0
-4 -4 -4 -10z"/>
<path d="M2000 7855 c0 -8 4 -15 10 -15 5 0 7 7 4 15 -4 8 -8 15 -10 15 -2 0
-4 -7 -4 -15z"/>
<path d="M1910 7821 c0 -12 50 -44 57 -37 9 8 -27 46 -44 46 -7 0 -13 -4 -13
-9z"/>
<path d="M2044 7814 c3 -9 6 -18 6 -20 0 -2 7 -4 15 -4 13 0 13 3 3 20 -15 24
-33 27 -24 4z"/>
<path d="M2136 7803 c6 -28 3 -34 -17 -42 -22 -8 -22 -10 -6 -16 12 -5 23 -1
32 11 18 24 18 36 0 60 -14 18 -14 17 -9 -13z"/>
<path d="M2038 7747 c12 -13 27 -37 33 -55 12 -36 34 -45 24 -9 -17 56 -38 87
-58 87 -20 0 -20 0 1 -23z"/>
<path d="M2238 7695 c-8 -9 3 -45 13 -45 5 0 9 6 9 13 0 17 -15 39 -22 32z"/>
<path d="M1985 7670 c3 -5 8 -10 11 -10 2 0 4 5 4 10 0 6 -5 10 -11 10 -5 0
-7 -4 -4 -10z"/>
<path d="M1975 7620 c3 -5 11 -10 16 -10 6 0 7 5 4 10 -3 6 -11 10 -16 10 -6
0 -7 -4 -4 -10z"/>
<path d="M2080 7600 c0 -5 5 -10 11 -10 5 0 7 5 4 10 -3 6 -8 10 -11 10 -2 0
-4 -4 -4 -10z"/>
<path d="M4645 7560 c-4 -7 -2 -16 6 -21 18 -11 23 -4 11 17 -7 12 -11 13 -17
4z"/>
<path d="M2220 7531 c0 -6 5 -13 10 -16 6 -3 10 1 10 9 0 9 -4 16 -10 16 -5 0
-10 -4 -10 -9z"/>
<path d="M2310 7518 c0 -16 5 -28 10 -28 13 0 13 20 0 40 -8 12 -10 9 -10 -12z"/>
<path d="M2050 7521 c0 -5 5 -13 10 -16 6 -3 10 -2 10 4 0 5 -4 13 -10 16 -5
3 -10 2 -10 -4z"/>
<path d="M4590 7512 c0 -5 11 -14 25 -20 24 -11 25 -10 15 8 -10 20 -40 28
-40 12z"/>
<path d="M4548 7479 c6 -7 12 -19 12 -27 0 -14 -13 -13 -53 3 -14 6 -12 0 8
-21 l26 -28 24 26 24 26 -27 17 c-15 10 -21 12 -14 4z"/>
<path d="M4751 7474 c0 -11 3 -14 6 -6 3 7 2 16 -1 19 -3 4 -6 -2 -5 -13z"/>
<path d="M4660 7460 c0 -5 7 -10 16 -10 8 0 12 5 9 10 -3 6 -10 10 -16 10 -5
0 -9 -4 -9 -10z"/>
<path d="M4740 7430 c0 -11 5 -20 10 -20 6 0 10 9 10 20 0 11 -4 20 -10 20 -5
0 -10 -9 -10 -20z"/>
<path d="M2370 7401 c0 -6 5 -13 10 -16 6 -3 10 1 10 9 0 9 -4 16 -10 16 -5 0
-10 -4 -10 -9z"/>
<path d="M4190 7385 c-7 -8 -19 -15 -26 -15 -8 0 -19 -12 -24 -26 -13 -33 -13
-34 8 -34 10 0 23 -5 28 -10 13 -13 44 -2 44 16 0 7 -7 17 -17 22 -19 11 -11
42 12 42 8 0 15 5 15 10 0 15 -26 12 -40 -5z"/>
<path d="M4570 7379 c0 -5 5 -9 12 -9 6 0 20 -7 30 -17 15 -14 22 -14 42 -3
14 7 22 18 20 24 -5 13 -104 19 -104 5z"/>
<path d="M4040 7370 c0 -5 7 -10 16 -10 8 0 12 5 9 10 -3 6 -10 10 -16 10 -5
0 -9 -4 -9 -10z"/>
<path d="M4250 7360 c20 -13 40 -13 40 0 0 6 -12 10 -27 10 -22 0 -25 -2 -13
-10z"/>
<path d="M4696 7331 c-3 -4 1 -17 9 -27 14 -18 14 -18 15 9 0 26 -13 36 -24
18z"/>
<path d="M4388 7323 c6 -2 18 -2 25 0 6 3 1 5 -13 5 -14 0 -19 -2 -12 -5z"/>
<path d="M4600 7296 c0 -16 26 -39 38 -34 15 5 -6 48 -23 48 -8 0 -15 -6 -15
-14z"/>
<path d="M4017 7286 c-4 -10 -5 -21 -2 -24 9 -9 17 6 13 25 -3 17 -4 17 -11
-1z"/>
<path d="M4165 7260 c-3 -5 -1 -10 4 -10 6 0 11 5 11 10 0 6 -2 10 -4 10 -3 0
-8 -4 -11 -10z"/>
<path d="M4475 7260 c3 -5 15 -10 26 -10 11 0 17 5 14 10 -3 6 -15 10 -26 10
-11 0 -17 -4 -14 -10z"/>
<path d="M4060 7230 c0 -5 7 -10 16 -10 8 0 12 5 9 10 -3 6 -10 10 -16 10 -5
0 -9 -4 -9 -10z"/>
<path d="M4455 7222 c6 -5 21 -13 35 -17 17 -5 22 -4 15 3 -5 5 -21 13 -35 17
-17 5 -22 4 -15 -3z"/>
<path d="M4010 7170 c-8 -5 -12 -12 -8 -15 8 -8 58 5 58 16 0 12 -31 11 -50
-1z"/>
<path d="M3785 7159 c-8 -13 -6 -15 23 -23 24 -8 29 3 10 22 -15 15 -25 15
-33 1z"/>
<path d="M3171 7111 c-8 -5 -9 -11 -3 -15 5 -3 15 1 22 9 14 16 3 20 -19 6z"/>
<path d="M3199 7061 c-19 -16 -20 -20 -8 -21 17 0 45 27 37 35 -3 3 -16 -3
-29 -14z"/>
<path d="M4560 7055 c-8 -9 -29 -15 -56 -15 -32 0 -44 -4 -48 -18 -3 -10 -19
-25 -34 -34 -24 -14 -28 -22 -24 -48 4 -25 9 -30 33 -30 16 0 29 4 29 9 0 6
19 14 42 18 31 6 44 14 47 28 2 11 17 32 34 46 21 17 28 31 24 42 -8 21 -31
22 -47 2z"/>
<path d="M2061 6956 c-17 -18 -22 -32 -17 -49 4 -18 -2 -36 -24 -65 l-29 -40
25 -16 c19 -13 23 -22 18 -41 -7 -28 10 -55 33 -55 22 0 73 56 73 79 0 30 14
26 55 -14 34 -34 35 -35 35 -12 0 14 -13 35 -30 51 -32 28 -32 51 1 41 29 -10
23 16 -11 45 -17 14 -39 33 -50 43 -11 9 -25 17 -30 17 -6 0 -14 9 -18 20 -8
20 -8 20 -31 -4z m89 -146 c0 -5 -4 -10 -10 -10 -5 0 -10 5 -10 10 0 6 5 10
10 10 6 0 10 -4 10 -10z"/>
<path d="M1930 6940 c0 -5 5 -10 11 -10 5 0 7 5 4 10 -3 6 -8 10 -11 10 -2 0
-4 -4 -4 -10z"/>
<path d="M1903 6898 c-18 -11 -33 -28 -33 -38 0 -10 -7 -20 -15 -24 -23 -9
-18 -26 9 -26 13 0 29 -7 36 -15 16 -19 40 -19 40 -1 0 16 -23 42 -42 48 -6 2
-8 10 -4 16 5 8 19 10 42 6 22 -4 35 -2 36 5 3 29 2 36 -7 36 -5 0 -14 3 -20
6 -5 3 -25 -3 -42 -13z"/>
<path d="M1790 6901 c0 -6 9 -15 21 -21 18 -10 20 -9 17 7 -3 19 -38 32 -38
14z"/>
<path d="M4530 6892 c0 -12 19 -26 26 -19 2 2 -2 10 -11 17 -9 8 -15 8 -15 2z"/>
<path d="M1942 6724 c-31 -22 -27 -36 10 -32 24 2 32 8 33 26 2 26 -12 28 -43
6z"/>
</g>
</svg>
