<?xml version="1.0" standalone="no"?>
<!DOCTYPE svg PUBLIC "-//W3C//DTD SVG 20010904//EN"
 "http://www.w3.org/TR/2001/REC-SVG-20010904/DTD/svg10.dtd">
<svg version="1.0" xmlns="http://www.w3.org/2000/svg"
 width="2289.000000pt" height="4212.000000pt" viewBox="0 0 2289.000000 4212.000000"
 preserveAspectRatio="xMidYMid meet">

<g transform="translate(0.000000,4212.000000) scale(0.100000,-0.100000)"
fill="#000000" stroke="none">
<path d="M12015 40955 c-409 -76 -581 -133 -923 -304 -224 -112 -219 -106
-393 -534 -78 -190 -114 -335 -145 -581 -20 -152 -32 -218 -56 -280 -122 -329
-129 -364 -126 -625 1 -127 -3 -201 -15 -266 -9 -49 -19 -157 -22 -240 -7
-167 -16 -124 81 -385 23 -62 28 -94 30 -182 2 -84 8 -122 27 -175 60 -165
101 -418 117 -719 11 -205 16 -225 121 -459 77 -173 93 -237 86 -345 -7 -103
-33 -191 -98 -328 -53 -114 -82 -155 -175 -252 -54 -57 -62 -71 -67 -113 l-5
-48 145 -150 c133 -139 233 -260 263 -318 6 -13 13 -45 14 -72 4 -62 49 -132
154 -239 88 -88 156 -140 185 -140 18 0 19 5 13 50 -8 58 8 97 49 124 36 23
49 16 64 -35 7 -24 39 -98 71 -164 76 -156 94 -219 94 -325 0 -136 -40 -223
-120 -256 -72 -30 -123 -9 -251 104 -87 76 -138 112 -163 112 -23 0 -50 -41
-50 -75 0 -43 26 -72 73 -80 47 -9 101 -67 173 -185 93 -154 231 -277 372
-333 24 -10 85 -22 136 -27 113 -12 199 -37 318 -96 132 -64 167 -62 323 15
303 149 445 337 445 586 0 87 -3 95 -73 175 -47 54 -77 110 -77 144 0 13 -16
45 -35 70 -44 59 -45 93 -2 171 48 86 70 95 233 95 150 0 152 1 176 86 18 63
55 113 111 150 108 72 151 135 203 299 55 174 104 216 280 241 237 33 279 86
399 506 81 280 144 433 258 626 97 164 121 247 166 577 11 77 27 160 36 185
30 81 73 252 96 385 26 153 31 420 10 575 -48 359 -156 637 -357 915 -59 83
-149 209 -201 280 -51 72 -124 165 -162 207 -52 58 -72 87 -76 115 -10 61 -37
114 -87 171 -56 64 -78 108 -87 176 -8 61 -32 100 -70 116 -60 25 -112 103
-165 250 -15 43 -21 48 -118 97 -57 28 -132 61 -168 73 -98 32 -249 70 -279
70 -14 1 -51 10 -81 21 -55 20 -188 27 -267 13 -26 -5 -33 -3 -33 9 0 9 4 19
10 22 5 3 19 27 31 53 28 63 29 148 2 193 -45 76 -47 94 -19 136 34 49 33 80
-4 125 -32 39 -79 59 -135 57 -16 0 -133 -20 -260 -44z m180 -6998 c49 -42 33
-118 -42 -188 -48 -46 -85 -65 -146 -72 -59 -8 -117 -37 -170 -86 -49 -45 -84
-64 -101 -58 -7 3 -18 26 -25 51 -14 57 -14 243 0 284 10 28 17 32 82 47 100
22 251 43 319 44 46 1 62 -3 83 -22z m-594 -397 c28 -16 49 -63 49 -114 0 -74
-35 -91 -82 -39 -18 20 -39 97 -32 119 2 8 6 21 9 29 5 17 28 19 56 5z"/>
<path d="M12500 40496 c0 -9 5 -16 10 -16 6 0 10 4 10 9 0 6 -4 13 -10 16 -5
3 -10 -1 -10 -9z"/>
<path d="M7395 40279 c-140 -23 -218 -23 -277 -2 -58 21 -84 11 -182 -68 -114
-91 -189 -127 -298 -144 -48 -7 -92 -45 -128 -109 -41 -72 -101 -131 -168
-165 -69 -35 -166 -117 -233 -196 -61 -71 -74 -96 -83 -160 -11 -73 -69 -241
-116 -335 -23 -45 -71 -126 -107 -181 l-66 -98 85 -98 c118 -137 157 -198 168
-266 5 -32 25 -108 44 -170 43 -137 51 -184 37 -219 -14 -38 -47 -36 -101 5
-95 72 -105 77 -140 77 -45 0 -130 -51 -130 -79 0 -10 18 -41 41 -67 22 -27
47 -62 54 -79 12 -28 11 -34 -16 -81 -22 -39 -29 -63 -28 -97 2 -38 -3 -52
-29 -81 -44 -50 -54 -94 -41 -181 14 -92 3 -134 -56 -209 -64 -83 -87 -162
-87 -301 -1 -124 9 -178 54 -279 42 -95 46 -149 18 -212 -33 -74 -36 -146 -11
-222 12 -34 30 -122 41 -193 31 -205 68 -333 130 -459 36 -72 50 -89 131 -162
27 -25 38 -44 43 -77 38 -244 674 -855 1368 -1315 81 -54 175 -126 210 -160
78 -77 157 -124 408 -242 107 -50 227 -107 265 -126 111 -56 161 -70 255 -69
138 0 477 74 578 125 61 31 116 91 146 160 34 77 84 152 152 226 83 91 103
128 124 223 10 45 37 132 60 192 71 187 107 305 133 430 14 66 23 123 20 128
-2 4 -16 7 -30 7 -26 0 -78 44 -68 59 2 5 -26 32 -63 62 -37 30 -109 94 -160
143 -51 50 -108 95 -127 102 -59 20 -227 118 -242 141 -24 36 -2 63 51 63 l44
0 -71 105 c-59 88 -73 102 -80 88 -5 -10 -32 -38 -60 -64 -47 -42 -50 -48 -52
-97 -2 -55 -15 -79 -52 -93 -30 -11 -65 5 -86 41 -22 37 -21 47 8 82 14 17 25
42 25 59 0 17 8 36 20 46 11 10 20 22 20 29 0 17 31 39 82 58 26 10 50 21 53
25 2 5 -32 65 -76 135 -60 93 -99 142 -151 188 -65 57 -69 63 -52 75 16 12 22
9 51 -24 l33 -38 -21 50 c-56 136 -81 341 -60 498 7 53 9 123 5 174 -7 82 -8
85 -36 95 -27 10 -28 11 -13 28 9 10 25 20 36 23 15 4 21 -3 29 -33 6 -21 10
-42 9 -47 -1 -4 -1 -17 0 -28 2 -18 4 -17 12 5 29 72 149 580 149 633 0 14 -9
17 -54 17 -30 0 -62 3 -71 7 -20 7 -75 118 -75 151 0 12 9 31 20 42 l21 21
-37 59 c-29 47 -37 72 -41 123 -7 85 7 109 132 232 137 133 144 152 115 321
-48 284 -119 490 -304 886 -48 101 -287 410 -425 549 -77 76 -130 119 -191
155 -54 31 -113 77 -162 127 l-78 77 -67 -1 c-38 -1 -117 -10 -178 -20z m-556
-941 c44 -46 34 -98 -19 -98 -47 0 -88 78 -58 108 19 19 55 14 77 -10z m1525
-352 c36 -44 44 -70 26 -81 -14 -9 -55 19 -75 49 -9 13 -19 41 -22 61 -6 35
-5 37 15 26 11 -6 37 -31 56 -55z m-209 -220 c18 -8 38 -23 44 -34 18 -34 13
-79 -10 -96 -37 -26 -79 2 -105 70 -13 35 -14 47 -4 59 16 19 31 19 75 1z
m464 -2710 c12 -14 25 -66 17 -66 -10 0 -65 64 -66 77 0 13 35 6 49 -11z m788
-1018 c135 -98 160 -128 107 -128 -15 0 -44 5 -65 12 -35 10 -39 15 -39 43 0
21 -9 40 -25 55 -45 42 -29 54 22 18z"/>
<path d="M8701 38028 c-40 -40 -38 -71 11 -156 l33 -57 5 82 c4 67 9 85 25 97
19 14 19 15 -8 40 -15 14 -29 26 -31 26 -1 0 -17 -14 -35 -32z"/>
<path d="M9210 37818 c0 -13 -3 -33 -6 -45 -5 -20 -2 -23 19 -23 l26 0 -16 45
c-17 50 -23 56 -23 23z"/>
<path d="M9239 37634 c-7 -9 -22 -14 -35 -11 -20 4 -23 -3 -43 -127 -11 -72
-26 -174 -31 -227 l-11 -95 81 -150 c44 -82 83 -166 87 -187 6 -40 68 -128
102 -146 11 -6 29 -26 41 -45 20 -33 21 -43 14 -161 -6 -116 -5 -127 13 -148
10 -12 31 -40 45 -63 32 -50 136 -174 147 -174 8 0 -3 89 -58 492 -26 190 -39
252 -77 369 -25 77 -52 180 -59 228 -14 85 -75 254 -97 268 -8 4 -9 -15 -5
-58 5 -44 4 -57 -3 -41 -15 36 -30 25 -30 -23 0 -37 3 -45 19 -45 10 0 29 -9
42 -19 21 -16 24 -29 26 -88 1 -37 4 -81 5 -98 3 -26 0 -30 -21 -30 -37 0 -65
45 -62 99 1 36 -2 47 -18 56 -30 15 -42 45 -52 122 -6 48 -5 89 5 140 12 63
12 75 -1 95 -10 15 -13 34 -9 53 6 34 4 37 -15 14z"/>
<path d="M9192 36591 c2 -48 9 -76 21 -89 13 -14 20 -50 28 -153 5 -74 9 -152
9 -174 -3 -75 2 -70 25 30 13 55 24 128 25 163 0 35 5 95 11 135 l11 71 -45
43 c-25 24 -56 43 -68 43 -20 0 -21 -4 -17 -69z"/>
<path d="M9070 36578 c0 -41 39 -188 50 -188 5 0 -3 42 -17 93 -22 81 -33 113
-33 95z"/>
<path d="M15617 36013 c-66 -67 -92 -102 -83 -111 8 -7 156 142 156 157 0 21
-18 10 -73 -46z"/>
<path d="M15497 35843 c-12 -11 -8 -58 7 -78 12 -17 14 -16 20 17 9 49 -6 83
-27 61z"/>
<path d="M16120 35732 c0 -6 4 -22 9 -35 14 -36 -18 -98 -90 -172 -76 -79
-143 -115 -198 -108 -49 7 -57 -6 -63 -102 -7 -88 -21 -117 -71 -151 l-40 -26
7 -82 c9 -122 -18 -209 -163 -523 -109 -234 -169 -438 -343 -1156 -13 -54 -66
-108 -145 -146 -91 -44 -132 -77 -150 -119 -21 -51 -9 -101 46 -185 57 -87 74
-132 61 -157 -23 -44 -89 -31 -182 35 -35 24 -82 56 -106 71 l-44 27 -26 -20
c-57 -43 -92 -160 -92 -312 0 -137 27 -239 82 -311 10 -14 36 -52 57 -85 20
-33 49 -78 64 -100 15 -22 47 -68 70 -102 23 -34 62 -98 87 -143 25 -45 59
-101 75 -124 33 -45 77 -115 118 -187 28 -50 169 -189 191 -189 8 0 20 -16 26
-35 14 -42 72 -95 105 -95 19 0 26 7 34 38 6 20 11 45 11 55 0 9 12 23 28 30
15 6 47 24 71 39 25 16 52 28 61 28 17 0 40 -51 40 -89 0 -12 12 -32 27 -45
l26 -23 -26 -7 c-18 -4 -27 -13 -27 -26 0 -29 17 -33 49 -11 16 12 34 21 39
21 6 0 17 9 25 20 12 18 15 18 36 4 12 -9 42 -16 66 -16 55 -1 67 -23 54 -93
-5 -27 -7 -51 -4 -53 3 -3 18 7 34 22 23 22 32 44 42 97 11 60 10 73 -7 121
-18 48 -24 55 -84 86 -39 20 -72 31 -85 28 -15 -4 -30 4 -52 27 -30 31 -31 36
-38 150 l-7 117 42 46 c23 25 48 60 56 79 20 50 59 59 223 52 145 -6 253 -27
284 -55 26 -23 37 -54 48 -132 16 -111 52 -137 83 -59 9 21 20 39 25 39 5 0
34 22 64 49 40 37 59 49 75 44 31 -8 117 36 197 100 l70 57 3 -35 c3 -29 -3
-39 -37 -70 -22 -21 -41 -47 -43 -62 -2 -19 -17 -33 -63 -58 -33 -17 -72 -35
-87 -39 -19 -4 -29 -15 -34 -34 -3 -15 -10 -39 -16 -55 -26 -69 27 -183 147
-317 98 -110 141 -184 127 -221 -13 -33 -35 -51 -127 -102 -101 -55 -113 -79
-69 -134 86 -108 228 -94 322 30 53 70 105 96 214 106 155 14 186 56 174 229
-8 112 1 147 41 163 122 48 186 93 309 220 94 97 107 124 74 151 -36 29 -88
23 -144 -17 -86 -61 -129 -44 -171 65 -31 82 -48 96 -126 103 -75 7 -115 29
-128 70 -15 45 3 103 78 249 33 63 63 131 66 151 4 21 11 37 15 37 4 0 28 -27
54 -60 26 -34 54 -64 63 -67 23 -9 79 56 93 107 13 49 12 57 -46 259 -26 88
-41 158 -36 163 5 5 21 4 36 -2 67 -25 117 -7 156 56 18 28 21 44 17 79 -5 32
-1 55 13 87 22 49 24 79 10 140 -5 24 -12 60 -15 80 -4 24 -22 57 -54 95 -26
32 -56 73 -65 90 -11 22 -34 42 -69 59 -28 15 -80 47 -114 71 -34 24 -83 51
-110 60 -26 9 -70 36 -98 61 -27 24 -84 64 -126 88 -95 55 -161 112 -184 160
-32 67 -2 102 107 125 67 14 142 52 162 81 31 44 21 69 -54 140 -98 93 -122
157 -79 212 13 17 34 28 60 32 42 7 69 26 69 49 0 18 31 35 64 35 57 0 42 33
-70 151 -116 122 -122 147 -79 337 14 61 25 125 25 142 0 52 -27 99 -102 177
-82 84 -145 134 -227 178 -50 27 -58 35 -71 80 -14 43 -22 53 -60 73 -63 32
-133 30 -165 -3 -30 -33 -73 -45 -161 -45 -85 0 -162 21 -204 56 -16 14 -30
21 -30 16z m-300 -4402 c13 -9 13 -10 0 -10 -8 0 -22 5 -30 10 -13 9 -13 10 0
10 8 0 22 -5 30 -10z"/>
<path d="M14622 34018 c-7 -7 -12 -19 -12 -28 0 -40 61 -55 80 -21 13 25 13
27 -6 45 -18 19 -45 21 -62 4z"/>
<path d="M3698 33850 c-25 -4 -66 -19 -90 -33 -56 -33 -235 -94 -462 -159
-244 -68 -336 -116 -489 -254 -88 -80 -163 -119 -212 -111 -23 4 -59 -3 -109
-19 -66 -23 -82 -33 -152 -104 -42 -43 -89 -98 -104 -122 -15 -24 -35 -49 -44
-57 -10 -8 -27 -33 -39 -55 -20 -36 -22 -60 -26 -206 -2 -91 -5 -249 -8 -352
-4 -166 -2 -188 11 -188 9 0 59 7 111 15 199 32 215 -16 64 -182 -97 -108
-159 -195 -159 -227 0 -37 54 -61 207 -91 205 -41 233 -54 233 -109 0 -53 -31
-76 -102 -76 -118 -1 -428 -106 -428 -146 0 -40 70 -134 99 -134 36 0 79 -40
110 -101 17 -34 31 -72 31 -85 0 -12 -22 -66 -50 -120 -58 -113 -64 -157 -26
-200 20 -24 33 -29 102 -35 94 -9 109 -22 97 -84 -4 -22 -8 -70 -8 -106 0 -55
4 -72 28 -107 40 -61 119 -108 263 -157 130 -45 184 -79 184 -117 0 -25 -23
-69 -49 -92 -12 -11 -21 -30 -21 -43 0 -25 13 -40 102 -115 67 -57 89 -100 98
-196 8 -79 27 -112 66 -112 42 0 94 87 94 160 0 45 20 99 43 115 28 20 116 20
144 0 16 -11 24 -30 29 -65 4 -27 14 -55 23 -63 9 -8 48 -17 88 -20 87 -7 144
-34 177 -85 27 -41 45 -106 46 -165 0 -50 34 -84 91 -93 24 -4 53 -17 66 -30
21 -21 23 -32 23 -119 0 -114 13 -135 83 -135 61 0 112 34 180 117 64 79 100
99 124 68 7 -11 13 -35 13 -54 1 -98 34 -108 100 -30 40 47 46 51 79 46 104
-14 281 -135 281 -192 0 -36 26 -82 50 -90 32 -10 34 -47 6 -176 -29 -134 -33
-216 -12 -244 22 -30 45 -11 81 70 19 42 42 78 51 82 9 3 31 0 48 -7 136 -56
186 -60 186 -15 0 41 -35 65 -163 110 -58 21 -81 56 -53 83 24 25 166 29 240
8 80 -24 126 -69 183 -182 56 -108 54 -119 -22 -143 -67 -22 -89 -54 -93 -139
-4 -101 7 -108 68 -43 l50 54 87 -8 c171 -15 172 -15 286 92 112 106 279 231
364 274 l64 32 52 -16 c66 -21 127 -70 127 -103 0 -13 -27 -79 -60 -146 -33
-67 -64 -147 -70 -177 -31 -154 -55 -192 -145 -237 -65 -31 -129 -30 -176 5
-42 31 -97 27 -185 -13 -159 -74 -232 -146 -303 -297 -79 -168 -97 -255 -65
-305 28 -41 12 -112 -65 -305 -39 -97 -77 -201 -83 -232 -16 -73 -4 -87 80
-94 79 -7 139 20 183 83 39 57 73 74 168 83 42 5 87 13 99 20 31 16 29 54 -4
76 -26 17 -27 19 -22 104 3 47 12 103 21 123 25 60 50 70 210 80 122 8 144 12
159 29 23 27 37 100 46 246 5 68 11 126 15 129 4 4 73 22 154 40 172 38 225
55 269 89 41 31 47 67 23 135 -46 129 -49 142 -39 179 20 75 74 103 219 115
243 21 312 178 190 433 -47 99 -65 111 -185 123 -96 10 -99 11 -119 50 -11 21
-37 40 -90 65 -41 19 -82 46 -91 60 -15 24 -15 29 6 96 29 89 69 145 113 157
20 6 56 5 94 -1 82 -13 95 -7 91 40 -4 55 -52 77 -173 79 -49 1 -89 5 -87 8 1
3 2 13 2 21 0 27 70 94 110 105 22 6 146 15 277 20 131 5 257 14 281 20 67 16
112 -10 249 -142 156 -150 188 -175 209 -157 13 10 15 24 11 61 -8 60 -28 100
-86 162 -106 115 -161 200 -142 219 7 7 33 6 83 -2 100 -18 130 -13 142 22 14
40 -8 198 -44 310 -37 116 -37 153 -3 220 22 43 27 66 28 132 0 44 4 88 9 97
4 9 36 35 71 57 87 54 108 97 140 285 26 148 38 191 60 200 7 2 32 -9 56 -25
80 -53 99 -37 114 91 8 77 -4 91 -89 101 -89 11 -192 65 -273 145 -67 66 -78
95 -41 115 43 23 135 3 247 -53 97 -49 110 -52 192 -56 76 -4 90 -2 95 12 4
10 -2 26 -14 39 -12 12 -28 39 -36 59 -14 34 -14 38 3 60 17 20 26 22 83 19
121 -7 157 -6 169 6 23 23 -19 51 -124 84 -82 25 -108 38 -140 69 -33 33 -37
42 -27 59 16 31 47 47 120 66 217 55 102 125 -230 140 -114 5 -149 4 -163 -7
-17 -12 -16 -15 8 -48 43 -58 25 -119 -47 -160 -96 -54 -212 -27 -255 60 -41
79 -25 200 26 200 28 0 103 53 149 105 117 133 86 312 -74 417 -81 53 -136
114 -188 209 -47 86 -80 121 -109 117 -19 -3 -22 -10 -25 -62 -2 -32 1 -79 7
-104 13 -63 1 -88 -44 -95 -74 -12 -85 -50 -28 -102 31 -29 37 -40 41 -87 5
-61 -14 -110 -48 -128 -26 -14 -52 0 -107 56 -27 28 -56 47 -84 54 -35 10 -68
37 -189 158 -80 81 -175 180 -211 220 -49 55 -71 72 -91 72 -33 0 -38 -15 -31
-83 10 -94 -58 -276 -128 -343 l-29 -28 -78 23 c-97 28 -242 98 -310 149 -40
29 -77 77 -161 203 -132 199 -253 351 -386 485 -115 116 -195 173 -260 185
-66 12 -92 34 -152 126 -70 110 -80 114 -262 119 -286 8 -598 41 -629 66 -18
15 -262 21 -334 8z m1008 -509 c17 -10 48 -36 69 -57 38 -40 165 -199 165
-207 0 -3 -48 -25 -107 -50 -191 -80 -272 -96 -294 -56 -17 33 -3 80 41 133
l41 49 -2 88 c-3 119 17 142 87 100z m-325 -331 c45 -25 9 -102 -47 -102 -59
0 -62 66 -5 97 32 17 28 17 52 5z m-27 -1882 c8 -13 7 -21 -2 -30 -16 -16 -65
9 -70 36 -3 14 2 17 29 14 17 -2 37 -11 43 -20z m535 -622 c17 -20 10 -77 -11
-90 -13 -8 -23 -5 -43 14 -30 28 -31 44 -5 70 24 24 43 25 59 6z m509 -215 c4
-27 -14 -51 -39 -51 -24 0 -25 36 -2 62 20 23 37 19 41 -11z m-530 -73 c32
-32 -8 -80 -48 -58 -34 18 -19 70 20 70 9 0 21 -5 28 -12z"/>
<path d="M14547 33632 c-34 -37 -16 -92 29 -92 23 0 74 51 74 74 0 37 -74 50
-103 18z"/>
<path d="M13589 33384 c-15 -18 -25 -143 -15 -170 6 -15 10 -13 35 11 16 15
44 54 61 87 25 47 29 62 20 73 -17 20 -84 19 -101 -1z"/>
<path d="M9247 33193 c-20 -20 -4 -64 41 -115 89 -97 92 -120 22 -179 -55 -46
-65 -71 -74 -174 -7 -90 -23 -106 -108 -114 l-63 -6 30 -21 c36 -25 141 -80
172 -89 29 -8 49 23 58 90 4 28 13 65 21 83 13 32 22 36 75 32 47 -3 62 25 57
101 -4 51 -15 86 -46 150 -50 104 -134 234 -157 242 -21 8 -20 8 -28 0z"/>
<path d="M8664 33126 c-38 -28 -115 -151 -121 -193 -4 -32 -1 -44 22 -71 47
-56 212 -91 280 -60 34 15 70 94 86 186 20 119 -1 138 -166 148 -63 5 -85 2
-101 -10z"/>
<path d="M7858 32523 c-25 -6 -22 -39 4 -57 45 -32 148 -11 148 29 0 8 -9 19
-19 25 -19 10 -100 12 -133 3z"/>
<path d="M8636 32128 c-9 -36 -7 -149 4 -189 13 -47 36 -66 85 -71 34 -2 40 0
43 17 2 18 -111 265 -122 265 -2 0 -6 -10 -10 -22z"/>
<path d="M9700 32101 c0 -5 -3 -16 -6 -24 -7 -18 21 -47 47 -47 25 0 26 41 1
63 -20 19 -42 22 -42 8z"/>
<path d="M10902 31415 c-23 -7 -53 -20 -65 -28 -12 -8 -92 -29 -177 -46 -203
-42 -439 -98 -520 -123 -94 -29 -271 -121 -343 -177 -113 -89 -289 -321 -303
-399 -14 -84 -111 -198 -260 -308 -116 -86 -171 -108 -264 -106 -89 2 -110 -3
-110 -28 0 -24 26 -39 85 -47 68 -9 80 -32 80 -156 0 -119 -7 -129 -83 -114
-61 13 -82 5 -82 -28 0 -32 -21 -74 -50 -100 -34 -31 -70 -110 -71 -157 -2
-86 -7 -93 -75 -94 -73 0 -94 -8 -94 -32 0 -28 -40 -60 -101 -80 -31 -11 -55
-26 -57 -35 -4 -22 70 -101 115 -122 22 -11 46 -15 66 -11 35 7 57 -8 57 -39
0 -35 -31 -65 -100 -99 -55 -27 -68 -39 -94 -86 -29 -51 -31 -63 -31 -151 0
-90 2 -98 30 -138 72 -103 88 -150 61 -186 -12 -17 -24 -19 -75 -17 -70 4
-108 -13 -136 -60 -24 -41 -13 -69 40 -107 25 -18 45 -39 45 -47 0 -7 -24 -28
-54 -44 -65 -37 -86 -66 -84 -117 2 -52 -14 -78 -65 -108 -24 -14 -49 -36 -57
-50 -13 -24 -11 -107 6 -307 9 -97 -4 -130 -62 -164 -107 -63 -196 -224 -210
-383 -8 -92 -30 -150 -59 -157 -79 -20 -235 113 -235 200 0 55 -15 67 -73 60
-48 -6 -56 -4 -86 21 -18 16 -54 61 -81 100 -72 106 -88 116 -178 113 -83 -3
-94 4 -113 75 -13 50 -31 55 -80 21 -55 -38 -89 -90 -89 -134 1 -41 16 -61 85
-114 28 -21 50 -43 50 -49 0 -21 -96 -11 -188 19 -97 31 -112 29 -135 -22 -39
-88 -52 -96 -136 -81 -123 22 -132 -21 -38 -178 52 -85 71 -177 52 -254 -6
-28 -19 -55 -27 -59 -23 -13 -42 -81 -43 -152 0 -97 -18 -189 -46 -248 -47
-97 -160 -154 -304 -153 -84 0 -119 16 -157 73 -35 52 -71 60 -135 27 -128
-64 -172 -147 -114 -216 74 -88 49 -248 -59 -373 -66 -76 -78 -110 -73 -204 3
-59 10 -87 40 -147 44 -90 105 -162 162 -192 34 -18 57 -22 136 -22 92 1 100
3 235 57 238 96 401 136 595 145 126 5 182 -6 207 -43 12 -18 11 -25 -10 -55
-12 -19 -45 -48 -72 -66 -119 -77 -133 -97 -142 -211 -10 -129 14 -169 93
-160 32 3 50 31 59 90 19 122 153 128 275 12 69 -65 127 -104 154 -104 32 0
66 -28 66 -54 0 -34 35 -64 95 -81 59 -18 105 -60 105 -98 0 -29 33 -83 59
-97 76 -40 106 129 33 186 -37 30 -47 61 -22 74 57 30 252 -3 331 -56 28 -19
55 -31 60 -28 5 3 9 20 9 38 0 54 27 70 106 63 37 -4 77 -13 90 -22 59 -39 60
-268 0 -334 -25 -28 -20 -42 12 -35 32 8 140 61 162 79 32 27 59 27 83 1 30
-32 41 -71 67 -222 22 -132 45 -220 60 -229 18 -11 78 15 139 60 113 83 160
97 225 65 48 -23 100 -88 91 -113 -8 -20 -19 -24 -97 -32 -80 -9 -97 -18 -82
-42 13 -22 74 -41 130 -42 84 -2 258 -70 317 -124 32 -31 35 -59 7 -87 -27
-27 -46 -25 -87 11 -30 26 -42 30 -80 27 -84 -5 -79 -68 5 -82 67 -10 219
-133 257 -207 23 -44 -1 -79 -55 -79 -22 0 -60 45 -60 71 0 32 -39 49 -112 49
-71 0 -88 -9 -61 -31 27 -23 44 -77 50 -166 7 -99 24 -129 81 -139 87 -16 103
-38 121 -165 12 -84 24 -104 82 -129 54 -23 194 -57 274 -66 62 -8 68 0 36 45
-33 46 -59 142 -76 277 -8 71 -23 157 -31 191 -15 61 -15 64 6 97 23 39 134
113 182 123 31 6 31 6 25 -30 -7 -48 21 -89 47 -68 20 17 21 110 1 166 -18 49
-19 76 -3 112 21 50 48 81 94 113 49 33 64 36 82 18 21 -21 13 -69 -29 -160
-27 -58 -38 -95 -34 -109 4 -13 36 -35 87 -60 45 -21 87 -44 96 -51 23 -20 30
-50 20 -87 -15 -52 6 -105 63 -166 51 -54 117 -92 143 -82 9 4 18 16 20 29 3
13 7 36 11 51 12 58 64 48 135 -26 58 -61 50 -62 166 35 74 63 113 77 168 58
44 -14 134 -94 142 -125 9 -37 -21 -81 -93 -135 -61 -46 -64 -50 -38 -50 51 0
186 42 216 67 38 32 39 81 3 160 -73 161 -93 278 -56 321 9 12 48 33 87 47
119 44 215 110 215 147 0 11 -16 38 -35 59 -19 22 -35 47 -35 57 0 26 35 56
100 86 93 44 112 38 200 -64 33 -39 60 -67 60 -63 0 5 -14 61 -30 127 -34 133
-39 216 -14 240 20 21 26 20 56 -4 41 -32 85 -109 128 -223 50 -131 51 -163
11 -172 -40 -9 -53 -27 -62 -87 -6 -35 -17 -60 -36 -80 l-27 -28 53 0 c125 0
258 33 302 76 19 18 43 28 82 33 31 4 62 13 71 20 28 24 29 67 3 125 -27 59
-81 106 -145 127 -119 39 -109 99 26 149 120 45 132 41 132 -50 0 -74 25 -113
82 -132 68 -22 79 -55 87 -259 6 -151 8 -171 26 -189 27 -27 131 -48 275 -56
195 -11 288 21 386 133 47 53 64 65 111 79 93 27 187 3 306 -79 84 -58 109
-59 174 -10 58 44 69 56 92 108 22 47 53 77 138 134 69 46 113 96 113 129 0
40 32 60 86 55 41 -4 53 -1 72 17 35 33 82 110 151 247 60 120 61 122 103 133
83 21 113 32 155 56 44 25 69 57 58 74 -8 13 -92 13 -154 -1 -64 -13 -91 -1
-91 42 0 43 21 88 68 141 76 89 65 117 -58 143 -49 10 -81 22 -92 35 -23 29
-38 107 -38 205 0 101 11 117 89 134 83 18 145 14 166 -9 18 -20 18 -47 -1
-222 -4 -34 -3 -58 3 -58 5 0 24 11 43 25 52 39 83 33 190 -34 52 -33 96 -58
98 -56 2 2 -4 27 -12 56 -24 78 -20 133 11 198 25 51 28 69 33 201 5 156 19
200 59 200 11 0 46 -30 81 -67 l61 -68 -5 40 c-3 22 -9 73 -12 113 -6 68 -5
75 21 112 22 32 30 57 37 128 14 141 34 233 68 317 41 103 56 170 75 335 9 76
23 150 33 170 15 30 23 35 56 38 65 4 146 68 146 113 0 28 -37 24 -113 -12
-116 -54 -135 -17 -118 236 19 285 12 396 -28 439 -60 64 -31 145 98 280 94
99 126 147 117 173 -5 13 -19 15 -70 11 -79 -7 -137 -37 -160 -84 -8 -19 -20
-34 -25 -34 -6 0 -28 17 -50 38 -53 50 -62 96 -33 177 23 63 29 115 13 115 -5
0 -18 -11 -29 -25 l-20 -25 -20 32 c-22 37 -157 314 -165 339 -4 13 -25 17
-99 22 -114 6 -194 33 -291 96 -93 62 -174 149 -242 265 -30 52 -65 100 -77
108 -42 26 -148 59 -169 53 -64 -21 -149 -142 -149 -212 0 -28 -4 -33 -24 -33
-14 0 -37 -10 -52 -23 -41 -36 -44 -104 -8 -212 l28 -85 -20 -27 c-12 -16 -33
-29 -48 -31 -58 -7 -165 87 -181 159 -5 23 0 40 23 75 32 47 48 109 37 143 -9
29 -60 43 -137 35 -89 -9 -124 5 -138 55 -23 84 -3 125 76 151 61 21 66 40 22
84 -34 34 -89 56 -141 56 -43 0 -87 49 -87 96 0 32 8 44 55 90 30 30 55 60 55
68 0 21 -32 36 -75 36 -106 0 -142 82 -89 201 30 67 26 79 -34 105 -39 16 -53
31 -83 87 -18 35 -20 60 -23 245 l-3 207 -32 70 c-55 118 -61 129 -103 174
l-41 43 -71 -11 c-73 -12 -139 -6 -228 20 -63 19 -137 97 -170 179 -17 41 -31
64 -40 61 -7 -2 -32 -11 -55 -19 -131 -45 -256 69 -222 203 11 44 45 89 84
111 17 9 12 14 -45 42 -36 17 -76 38 -90 46 -14 8 -68 35 -120 60 -52 25 -111
54 -130 65 -46 26 -164 81 -175 81 -5 0 -68 27 -140 60 -141 64 -246 99 -365
124 -207 42 -219 43 -288 21z m-920 -2315 c3 -39 -15 -49 -45 -26 -18 14 -18
16 4 45 26 36 37 30 41 -19z m246 -38 c12 -7 22 -19 22 -27 0 -8 4 -15 8 -15
9 0 72 -122 72 -140 0 -5 4 -10 8 -10 4 0 14 -21 21 -47 8 -27 18 -53 22 -59
5 -6 17 -38 28 -72 l19 -61 -67 -22 c-36 -12 -72 -27 -80 -34 -23 -22 -5 -58
44 -89 41 -25 75 -68 75 -95 0 -5 -15 -13 -32 -17 -92 -22 -144 2 -152 71 -5
52 -38 155 -48 155 -4 0 -8 6 -8 14 0 24 -50 57 -74 50 -12 -4 -23 -9 -26 -13
-26 -31 -96 -41 -102 -13 -7 29 12 95 37 134 25 37 33 42 97 52 l36 7 -4 86
c-3 85 2 110 34 145 16 19 35 19 70 0z m249 -114 c13 -18 11 -32 -8 -51 -26
-25 -69 -11 -69 23 0 33 58 53 77 28z m95 -288 c15 -7 30 -21 33 -32 4 -10 10
-18 15 -18 4 0 7 -8 6 -17 -3 -18 -46 -32 -46 -15 0 5 -9 19 -20 32 -11 13
-20 29 -20 37 0 7 -4 13 -10 13 -5 0 -10 4 -10 9 0 11 16 8 52 -9z m3471 -255
c15 -19 48 -46 72 -61 25 -14 45 -28 45 -30 0 -3 -16 -12 -36 -20 -68 -29
-124 19 -124 106 0 22 3 40 8 40 4 0 19 -16 35 -35z m-3213 -164 c0 -19 -27
-48 -36 -39 -13 14 -11 49 4 57 21 12 32 5 32 -18z m423 -123 c11 -23 12 -37
5 -54 -12 -26 -41 -37 -57 -21 -18 18 -13 85 7 96 25 15 28 14 45 -21z m-633
-473 c17 -20 8 -50 -14 -50 -23 0 -41 27 -33 49 8 20 31 21 47 1z m3478 -7
c18 -18 15 -41 -9 -67 -27 -29 -53 -24 -57 11 -6 53 34 88 66 56z m-2910 -37
c11 -7 11 -16 1 -52 l-12 -44 -12 35 c-11 34 -10 70 4 70 3 0 12 -4 19 -9z
m-627 -91 c23 -13 25 -36 5 -56 -18 -17 -36 -17 -56 -1 -21 16 -19 36 4 53 24
17 22 17 47 4z m3071 -167 c34 -31 18 -93 -24 -93 -44 0 -91 89 -55 103 25 11
61 6 79 -10z m669 -136 c103 -89 181 -184 177 -217 -3 -20 -13 -27 -58 -42
-30 -9 -86 -17 -124 -17 -63 -1 -73 2 -98 26 -17 16 -44 29 -69 32 -56 8 -71
32 -40 65 13 13 36 30 51 36 42 17 43 34 10 100 -32 63 -37 99 -18 118 16 16
72 -17 169 -101z m-3447 -34 c11 -10 23 -19 25 -20 9 -6 -53 -63 -68 -63 -23
0 -51 31 -51 57 0 51 48 64 94 26z m-118 -191 c-14 -14 -16 -14 -16 -1 0 20
23 44 29 28 2 -6 -4 -18 -13 -27z m2593 -148 c19 -24 19 -54 -1 -54 -23 0 -48
23 -48 44 0 43 20 47 49 10z m1197 -104 c116 -39 164 -110 76 -110 -72 0 -199
85 -178 119 10 16 34 14 102 -9z m-1642 4 c9 -3 16 -17 16 -31 0 -19 -9 -28
-42 -42 -56 -24 -98 -34 -98 -23 0 16 43 64 74 83 36 22 30 21 50 13z m-360
-79 c7 -27 -11 -76 -30 -82 -37 -12 -60 80 -28 111 20 21 49 6 58 -29z m256
-273 c0 -78 4 -113 15 -129 13 -19 12 -24 -16 -67 -24 -35 -40 -48 -70 -56
-47 -13 -79 -42 -79 -72 0 -12 5 -49 11 -84 18 -106 -15 -132 -88 -69 -72 61
-88 97 -88 195 l0 85 -45 13 c-25 7 -64 22 -88 34 -100 49 -119 153 -36 193
68 32 252 61 412 64 l72 1 0 -108z m-5901 -31 c19 -12 7 -28 -42 -53 -53 -28
-148 -31 -173 -6 -15 15 -15 17 9 33 41 27 177 44 206 26z m7011 -46 c26 -32
-13 -81 -47 -59 -35 22 -23 74 17 74 10 0 23 -7 30 -15z m130 -148 c-1 -12 -9
-37 -19 -56 -16 -31 -19 -32 -34 -16 -37 37 -7 127 34 104 11 -5 19 -20 19
-32z m-1836 -69 c16 -26 -29 -68 -80 -75 -51 -7 -96 25 -78 54 24 39 137 53
158 21z m-6207 -875 c24 -32 -31 -68 -79 -51 -37 13 -44 39 -16 61 26 22 76
17 95 -10z m1700 -408 c13 -28 14 -37 3 -50 -23 -28 -90 8 -90 50 0 29 8 35
42 35 22 0 32 -7 45 -35z m293 -5 c16 -16 18 -25 10 -40 -6 -11 -21 -20 -34
-20 -28 0 -71 43 -63 64 9 23 63 20 87 -4z m1403 -102 c12 -17 20 -42 20 -69
0 -36 -6 -48 -33 -72 -28 -25 -38 -28 -74 -24 -85 12 -99 87 -29 159 45 47 84
49 116 6z m238 -149 c16 -11 41 -40 55 -65 29 -50 22 -74 -23 -74 -75 0 -135
81 -103 141 14 25 35 24 71 -2z m-433 -124 c19 -18 -1 -53 -34 -61 -29 -7 -64
19 -64 48 0 35 66 44 98 13z m4132 -87 c0 -43 -60 -79 -73 -44 -8 20 30 66 54
66 13 0 19 -7 19 -22z m376 14 c21 -14 34 -51 34 -96 0 -37 -6 -52 -32 -82
-28 -32 -36 -36 -67 -31 -20 3 -69 20 -109 38 l-73 34 57 45 c121 94 159 113
190 92z m-3851 -42 c19 -31 -41 -84 -73 -63 -24 15 -27 44 -6 60 21 15 70 17
79 3z m-619 -109 c40 -24 78 -75 94 -124 10 -32 9 -42 -4 -62 -20 -31 -50 -32
-96 -4 -81 49 -129 114 -110 150 10 17 66 59 80 59 3 0 19 -9 36 -19z m250
-25 c24 -23 26 -54 5 -75 -12 -12 -26 -21 -32 -21 -19 0 -69 58 -69 80 0 36
65 48 96 16z m1039 -198 c41 -21 95 -82 95 -108 0 -36 -27 -70 -55 -70 -66 0
-195 185 -142 203 13 4 71 -10 102 -25z m2195 -76 c91 -49 103 -242 15 -242
-32 0 -55 31 -64 88 -4 28 -20 69 -34 91 -27 41 -33 62 -20 74 13 13 69 7 103
-11z m-1390 -72 c10 -24 10 -37 1 -56 -24 -54 -71 -34 -71 31 0 59 49 76 70
25z m-1715 -21 c4 -6 11 -43 16 -82 5 -40 14 -91 20 -115 15 -55 1 -88 -46
-108 -74 -31 -120 7 -120 99 0 80 21 150 55 187 28 30 63 39 75 19z m889 -83
c44 -18 54 -50 29 -85 -11 -14 -32 -32 -47 -39 -59 -29 -160 37 -130 85 12 21
71 53 97 53 10 0 33 -6 51 -14z m-647 -8 c90 -38 83 -101 -12 -101 -70 0 -103
41 -75 94 12 22 46 25 87 7z m639 -253 c9 -22 -4 -63 -26 -85 -26 -26 -36 -25
-55 4 -15 22 -15 27 -1 54 22 42 71 58 82 27z"/>
<path d="M17695 31257 c-12 -7 -44 -30 -73 -52 l-53 -40 37 -9 c46 -11 110 7
124 35 13 23 10 71 -5 75 -5 2 -19 -2 -30 -9z"/>
<path d="M16200 31202 c0 -46 93 -133 116 -109 11 11 -8 50 -43 88 -38 42 -73
52 -73 21z"/>
<path d="M7773 30210 c-18 -11 -33 -24 -33 -29 0 -20 46 -41 90 -41 52 0 77
-20 122 -100 46 -80 134 -129 221 -122 29 3 19 28 -41 104 -139 174 -270 243
-359 188z"/>
<path d="M7153 29469 c-46 -23 -74 -47 -116 -102 -33 -44 -55 -46 -105 -12
-94 64 -192 5 -192 -115 0 -31 5 -61 12 -68 20 -20 58 -14 83 14 32 35 58 28
127 -35 56 -51 125 -101 139 -101 19 0 8 41 -20 72 -41 47 -51 71 -51 118 0
79 36 103 81 55 13 -13 29 -25 35 -25 32 0 134 153 134 203 0 25 -73 23 -127
-4z"/>
<path d="M4330 28761 c-30 -56 5 -151 55 -151 55 0 69 27 43 87 -33 78 -75
105 -98 64z"/>
<path d="M7956 28724 c-9 -8 -16 -19 -16 -22 0 -15 32 -52 44 -52 15 0 46 32
46 48 0 15 -29 42 -45 42 -7 0 -21 -7 -29 -16z"/>
<path d="M7455 28229 c-55 -13 -65 -26 -37 -49 14 -12 47 -21 90 -25 101 -10
131 -22 149 -61 9 -18 20 -31 25 -28 10 6 10 125 0 141 -20 31 -137 43 -227
22z"/>
<path d="M7450 27971 c0 -23 67 -28 96 -6 17 13 14 14 -38 15 -32 0 -58 -4
-58 -9z"/>
<path d="M7790 27970 c0 -16 27 -23 65 -16 52 10 42 26 -15 26 -28 0 -50 -5
-50 -10z"/>
<path d="M7298 27939 c-19 -11 -25 -64 -8 -74 14 -9 62 42 58 63 -4 20 -27 25
-50 11z"/>
<path d="M7483 27805 c-46 -20 -41 -40 15 -62 63 -24 357 -27 357 -4 0 21 -57
52 -124 67 -74 18 -207 17 -248 -1z"/>
<path d="M7160 27764 c-6 -14 -10 -32 -10 -41 0 -83 157 -196 301 -218 58 -9
79 9 79 66 0 54 -23 74 -94 83 -75 8 -126 35 -171 91 -45 54 -89 63 -105 19z"/>
<path d="M15559 27579 c-16 -31 -3 -86 41 -160 38 -64 66 -97 75 -87 3 2 8 32
11 66 8 75 -13 139 -57 177 -37 31 -55 32 -70 4z"/>
<path d="M7616 27413 c-45 -62 -52 -90 -29 -116 26 -29 143 -81 155 -69 19 19
-53 232 -78 232 -8 0 -29 -21 -48 -47z"/>
<path d="M6170 26753 c-20 -25 -21 -35 -15 -103 14 -154 56 -330 79 -330 28 0
77 110 92 205 5 39 3 52 -16 77 -12 17 -25 54 -29 84 -13 90 -67 123 -111 67z"/>
<path d="M15686 26758 c-24 -34 -20 -58 8 -58 32 0 50 24 42 55 -8 31 -30 32
-50 3z"/>
<path d="M5956 26684 c-9 -8 -16 -22 -16 -29 0 -18 27 -45 45 -45 18 0 45 27
45 45 0 18 -27 45 -45 45 -7 0 -21 -7 -29 -16z"/>
<path d="M15897 26632 c-23 -25 -22 -62 1 -62 28 0 55 35 47 59 -8 26 -27 27
-48 3z"/>
<path d="M16401 26494 c-23 -39 -26 -65 -10 -81 29 -29 64 26 53 83 -8 43 -17
43 -43 -2z"/>
<path d="M16200 26329 c-30 -31 -70 -98 -70 -119 0 -7 19 -10 52 -8 l51 3 18
50 c36 104 13 137 -51 74z"/>
<path d="M16694 26332 c-57 -42 -114 -111 -114 -140 0 -23 3 -24 37 -19 44 7
165 86 189 123 40 60 -42 86 -112 36z"/>
<path d="M15831 26289 c-48 -71 -54 -125 -22 -188 28 -54 85 -101 122 -101 32
0 89 25 89 39 0 5 -26 20 -57 33 -32 14 -67 35 -77 47 -19 21 -19 38 0 184 9
64 -5 60 -55 -14z"/>
<path d="M16206 26067 c-50 -52 -94 -134 -135 -250 -37 -105 -41 -157 -12
-157 27 0 54 38 92 128 38 92 84 167 150 243 27 30 49 61 49 67 0 8 -19 12
-52 12 -48 0 -54 -3 -92 -43z"/>
<path d="M15406 25780 c-49 -58 -59 -149 -19 -165 41 -15 95 111 73 170 -12
33 -23 32 -54 -5z"/>
<path d="M16462 25728 c-13 -13 -16 -60 -5 -71 11 -12 53 35 53 60 0 25 -27
32 -48 11z"/>
<path d="M16487 25510 c-35 -28 -36 -60 -2 -60 29 0 79 44 72 63 -6 20 -42 19
-70 -3z"/>
<path d="M16065 25426 c-28 -28 -32 -54 -11 -62 26 -10 56 15 56 46 0 40 -15
46 -45 16z"/>
<path d="M5352 25221 c-26 -46 -29 -91 -7 -91 25 0 72 27 79 45 10 26 7 60 -6
73 -22 22 -44 13 -66 -27z"/>
<path d="M15456 25134 c-3 -9 -6 -31 -6 -50 0 -29 3 -34 24 -34 31 0 60 43 52
76 -5 18 -13 24 -35 24 -17 0 -31 -6 -35 -16z"/>
<path d="M15112 25113 c-27 -38 -46 -106 -38 -137 9 -36 53 -36 66 0 13 32 13
164 1 164 -5 0 -18 -12 -29 -27z"/>
<path d="M16189 25090 c-24 -14 -45 -68 -31 -82 16 -16 51 1 68 34 24 47 5 72
-37 48z"/>
<path d="M5540 25048 c-35 -24 -90 -111 -78 -123 10 -10 143 54 168 80 52 55
-21 89 -90 43z"/>
<path d="M5745 24870 c-44 -28 -81 -54 -82 -58 -1 -4 42 -54 96 -112 l98 -105
74 79 c77 81 117 136 102 136 -5 0 -48 -14 -96 -31 -107 -37 -151 -36 -155 2
-3 28 16 78 44 117 25 33 6 27 -81 -28z"/>
<path d="M14831 24591 c-15 -27 -14 -66 3 -80 23 -19 68 24 64 63 -2 25 -8 32
-30 34 -18 2 -30 -3 -37 -17z"/>
<path d="M7162 24558 c-28 -28 2 -68 50 -68 35 0 98 -56 98 -88 0 -38 -19 -71
-55 -94 -95 -62 -70 -160 45 -175 32 -5 47 -1 78 20 41 28 100 47 150 47 44 0
45 27 6 125 -30 73 -66 112 -117 126 -21 6 -58 27 -80 48 -71 65 -144 90 -175
59z"/>
<path d="M7862 24474 c-28 -20 -29 -60 -1 -67 11 -3 34 -1 50 5 23 8 29 16 29
38 0 41 -38 52 -78 24z"/>
<path d="M6952 24441 c-19 -5 -38 -13 -44 -19 -16 -16 0 -49 26 -56 45 -11
185 48 163 70 -11 11 -107 14 -145 5z"/>
<path d="M6380 24261 c0 -12 64 -23 94 -15 46 11 28 24 -34 24 -33 0 -60 -4
-60 -9z"/>
<path d="M7996 24119 c-15 -76 -1 -129 34 -129 29 0 34 38 13 100 -22 63 -38
73 -47 29z"/>
<path d="M7367 24023 c-11 -11 -8 -48 5 -61 7 -7 22 -12 35 -12 29 0 31 28 3
58 -22 23 -32 27 -43 15z"/>
<path d="M7782 23894 c-7 -3 -17 -15 -23 -26 -14 -26 5 -48 40 -48 39 0 64 21
59 51 -2 19 -9 24 -33 26 -16 1 -36 -1 -43 -3z"/>
<path d="M8868 23559 c-85 -88 -49 -122 82 -76 75 25 86 47 50 97 -34 48 -72
42 -132 -21z"/>
<path d="M11460 23386 c0 -38 81 -96 116 -82 25 10 12 48 -25 73 -38 26 -91
31 -91 9z"/>
<path d="M11320 23204 c0 -45 107 -134 161 -134 58 0 39 38 -53 106 -62 45
-108 57 -108 28z"/>
</g>
</svg>
